<svg viewBox="0 0 393 852" fill="none" xmlns="http://www.w3.org/2000/svg">
<g clip-path="url(#clip0_67_11229)">
<rect width="393" height="852" fill="white"/>
<rect x="393" y="-4.03027" width="800" height="360" transform="rotate(90 393 -4.03027)" fill="#55096C"/>
<rect width="393" height="856" transform="translate(0 -4)" fill="#55096C"/>
<circle cx="231.5" cy="378.5" r="128.5" fill="#611478"/>
<path d="M37.8032 700.234C36.3683 693.971 41.1261 688 47.5506 688H284.211C288.873 688 292.917 691.222 293.958 695.766L401.197 1163.77C402.632 1170.03 397.874 1176 391.449 1176H154.789C150.127 1176 146.083 1172.78 145.042 1168.23L37.8032 700.234Z" fill="#611478"/>
<path d="M179.803 529.234C178.368 522.971 183.126 517 189.551 517H426.211C430.873 517 434.917 520.222 435.958 524.766L543.197 992.766C544.632 999.029 539.874 1005 533.449 1005H296.789C292.127 1005 288.083 1001.78 287.042 997.234L179.803 529.234Z" fill="#083D54"/>
<rect x="367" width="225" height="852" fill="#094E6C"/>
<path d="M367 852C367 740.694 291 541.746 291 426.599C291 311.453 367 111.306 367 0L367 426.599L367 852Z" fill="#094E6C"/>
<g clip-path="url(#clip1_67_11229)">
<path d="M321 421L315 427L321 433" stroke="white" stroke-width="2" stroke-linecap="round" stroke-linejoin="round"/>
</g>
</g>
<path d="M42.1686 551.7V564.96H40.7886V553.64L36.3086 560.12H35.1486L30.6686 553.64V565H29.3086V551.7H30.9886L35.7286 558.56L40.4686 551.7H42.1686ZM54.0719 555.26V565H52.6919V563.16C51.7719 564.453 50.5452 565.1 49.0119 565.1C48.0919 565.1 47.2452 564.88 46.4719 564.44C45.6985 563.987 45.0852 563.373 44.6319 562.6C44.1919 561.827 43.9719 560.987 43.9719 560.08C43.9719 559.16 44.1919 558.313 44.6319 557.54C45.0852 556.767 45.6985 556.16 46.4719 555.72C47.2452 555.267 48.0919 555.04 49.0119 555.04C49.9585 555.04 50.7319 555.24 51.3319 555.64C51.9452 556.027 52.3985 556.447 52.6919 556.9V555.26H54.0719ZM49.0119 563.74C49.6785 563.74 50.2919 563.58 50.8519 563.26C51.4119 562.927 51.8519 562.48 52.1719 561.92C52.5052 561.36 52.6719 560.747 52.6719 560.08C52.6719 559.413 52.5052 558.8 52.1719 558.24C51.8519 557.667 51.4119 557.22 50.8519 556.9C50.2919 556.567 49.6785 556.4 49.0119 556.4C48.3452 556.4 47.7252 556.567 47.1519 556.9C46.5919 557.22 46.1452 557.667 45.8119 558.24C45.4919 558.8 45.3319 559.413 45.3319 560.08C45.3319 560.747 45.4919 561.36 45.8119 561.92C46.1452 562.48 46.5919 562.927 47.1519 563.26C47.7252 563.58 48.3452 563.74 49.0119 563.74ZM61.0864 565L57.4464 560.74V565H56.0664V551.6H57.4464V557.96L60.7264 555H62.7864L58.0064 559.3L62.9064 565H61.0864ZM64.7478 560.74C64.9078 561.593 65.3278 562.307 66.0078 562.88C66.6878 563.44 67.4678 563.72 68.3478 563.72C69.0011 563.72 69.6011 563.567 70.1478 563.26C70.6945 562.953 71.1345 562.533 71.4678 562L72.6478 562.68C72.1945 563.413 71.5878 564 70.8278 564.44C70.0678 564.88 69.2411 565.1 68.3478 565.1C67.4411 565.1 66.6011 564.873 65.8278 564.42C65.0545 563.967 64.4411 563.353 63.9878 562.58C63.5345 561.807 63.3078 560.967 63.3078 560.06C63.3078 559.14 63.5345 558.3 63.9878 557.54C64.4411 556.767 65.0545 556.153 65.8278 555.7C66.6011 555.247 67.4411 555.02 68.3478 555.02C69.2545 555.02 70.0945 555.247 70.8678 555.7C71.6411 556.153 72.2545 556.767 72.7078 557.54C73.1611 558.3 73.3878 559.14 73.3878 560.06C73.3878 560.22 73.3745 560.447 73.3478 560.74H64.7478ZM68.3478 556.38C67.7611 556.38 67.1878 556.52 66.6278 556.8C66.0678 557.067 65.6145 557.44 65.2678 557.92C64.9211 558.387 64.7478 558.893 64.7478 559.44H71.9478C71.9478 558.893 71.7745 558.387 71.4278 557.92C71.0811 557.44 70.6278 557.067 70.0678 556.8C69.5211 556.52 68.9478 556.38 68.3478 556.38ZM84.1914 569.26V555.26H85.5514V556.92C86.0181 556.267 86.5647 555.78 87.1914 555.46C87.8181 555.127 88.5047 554.96 89.2514 554.96C90.1581 554.96 90.9981 555.187 91.7714 555.64C92.5447 556.093 93.1581 556.707 93.6114 557.48C94.0647 558.253 94.2914 559.093 94.2914 560C94.2914 560.907 94.0647 561.747 93.6114 562.52C93.1581 563.293 92.5447 563.907 91.7714 564.36C90.9981 564.813 90.1581 565.04 89.2514 565.04C88.3047 565.04 87.5247 564.847 86.9114 564.46C86.2981 564.06 85.8447 563.633 85.5514 563.18V569.26H84.1914ZM89.2514 556.34C88.5847 556.34 87.9714 556.507 87.4114 556.84C86.8514 557.16 86.4047 557.6 86.0714 558.16C85.7381 558.72 85.5714 559.333 85.5714 560C85.5714 560.667 85.7381 561.28 86.0714 561.84C86.4047 562.4 86.8514 562.847 87.4114 563.18C87.9714 563.513 88.5847 563.68 89.2514 563.68C89.9181 563.68 90.5314 563.513 91.0914 563.18C91.6514 562.847 92.0914 562.4 92.4114 561.84C92.7447 561.28 92.9114 560.667 92.9114 560C92.9114 559.333 92.7447 558.72 92.4114 558.16C92.0914 557.6 91.6514 557.16 91.0914 556.84C90.5314 556.507 89.9181 556.34 89.2514 556.34ZM99.8659 565.08C99.1459 565.08 98.4793 564.907 97.8659 564.56C97.2659 564.2 96.7859 563.72 96.4259 563.12C96.0659 562.507 95.8859 561.84 95.8859 561.12V555H97.2659V561.12C97.2659 561.587 97.3793 562.02 97.6059 562.42C97.8459 562.82 98.1659 563.14 98.5659 563.38C98.9659 563.607 99.3993 563.72 99.8659 563.72C100.333 563.72 100.766 563.607 101.166 563.38C101.566 563.14 101.879 562.82 102.106 562.42C102.346 562.02 102.466 561.587 102.466 561.12V555H103.826V564.9H102.466V563.94C102.133 564.313 101.739 564.6 101.286 564.8C100.846 564.987 100.373 565.08 99.8659 565.08ZM110.412 556.48C110.105 556.347 109.799 556.28 109.492 556.28C108.865 556.28 108.325 556.507 107.872 556.96C107.419 557.413 107.192 557.953 107.192 558.58V565H105.832V558.58C105.832 557.86 106.019 557.207 106.392 556.62C106.779 556.02 107.279 555.573 107.892 555.28L107.932 555.26C108.425 555.033 108.945 554.92 109.492 554.92C110.345 554.92 111.105 555.18 111.772 555.7L110.412 556.48ZM120.45 563.32C119.97 563.88 119.396 564.32 118.73 564.64C118.076 564.947 117.37 565.1 116.61 565.1C115.703 565.1 114.863 564.873 114.09 564.42C113.316 563.967 112.703 563.353 112.25 562.58C111.796 561.807 111.57 560.967 111.57 560.06C111.57 559.153 111.796 558.313 112.25 557.54C112.703 556.767 113.316 556.153 114.09 555.7C114.863 555.247 115.703 555.02 116.61 555.02C117.37 555.02 118.076 555.18 118.73 555.5C119.396 555.807 119.97 556.24 120.45 556.8L119.23 557.5C118.896 557.153 118.503 556.887 118.05 556.7C117.596 556.5 117.116 556.4 116.61 556.4C115.943 556.4 115.33 556.567 114.77 556.9C114.21 557.22 113.763 557.66 113.43 558.22C113.096 558.78 112.93 559.393 112.93 560.06C112.93 560.727 113.096 561.34 113.43 561.9C113.763 562.46 114.21 562.907 114.77 563.24C115.33 563.56 115.943 563.72 116.61 563.72C117.116 563.72 117.596 563.627 118.05 563.44C118.503 563.24 118.896 562.967 119.23 562.62L120.45 563.32ZM126.238 554.92C126.958 554.92 127.618 555.1 128.218 555.46C128.831 555.807 129.311 556.287 129.658 556.9C130.018 557.5 130.198 558.16 130.198 558.88V565H128.818V558.88C128.818 558.413 128.698 557.98 128.458 557.58C128.231 557.18 127.918 556.867 127.518 556.64C127.131 556.4 126.704 556.28 126.238 556.28C125.771 556.28 125.338 556.4 124.938 556.64C124.538 556.867 124.218 557.18 123.978 557.58C123.751 557.98 123.638 558.413 123.638 558.88V565H122.258V551.66H123.638V556.04C123.958 555.667 124.338 555.387 124.778 555.2C125.231 555.013 125.718 554.92 126.238 554.92ZM142.099 555.26V565H140.719V563.16C139.799 564.453 138.573 565.1 137.039 565.1C136.119 565.1 135.273 564.88 134.499 564.44C133.726 563.987 133.113 563.373 132.659 562.6C132.219 561.827 131.999 560.987 131.999 560.08C131.999 559.16 132.219 558.313 132.659 557.54C133.113 556.767 133.726 556.16 134.499 555.72C135.273 555.267 136.119 555.04 137.039 555.04C137.986 555.04 138.759 555.24 139.359 555.64C139.973 556.027 140.426 556.447 140.719 556.9V555.26H142.099ZM137.039 563.74C137.706 563.74 138.319 563.58 138.879 563.26C139.439 562.927 139.879 562.48 140.199 561.92C140.533 561.36 140.699 560.747 140.699 560.08C140.699 559.413 140.533 558.8 140.199 558.24C139.879 557.667 139.439 557.22 138.879 556.9C138.319 556.567 137.706 556.4 137.039 556.4C136.373 556.4 135.753 556.567 135.179 556.9C134.619 557.22 134.173 557.667 133.839 558.24C133.519 558.8 133.359 559.413 133.359 560.08C133.359 560.747 133.519 561.36 133.839 561.92C134.173 562.48 134.619 562.927 135.179 563.26C135.753 563.58 136.373 563.74 137.039 563.74ZM144.903 562.32C145.01 562.693 145.176 562.987 145.403 563.2C145.776 563.547 146.323 563.72 147.043 563.72C147.67 563.72 148.176 563.573 148.563 563.28C148.95 562.987 149.143 562.607 149.143 562.14C149.143 561.7 149.056 561.373 148.883 561.16C148.71 560.947 148.483 560.813 148.203 560.76C147.936 560.693 147.563 560.653 147.083 560.64C146.39 560.6 145.823 560.527 145.383 560.42C144.943 560.3 144.543 560.04 144.183 559.64C143.743 559.093 143.523 558.493 143.523 557.84C143.523 557.68 143.53 557.56 143.543 557.48C143.65 556.64 144.003 556 144.603 555.56C145.203 555.107 146.01 554.88 147.023 554.88H147.043C147.79 554.88 148.396 555.02 148.863 555.3C149.33 555.58 149.69 555.92 149.943 556.32C150.21 556.76 150.376 557.22 150.443 557.7H149.043C149.016 557.513 148.93 557.293 148.783 557.04C148.45 556.533 147.87 556.267 147.043 556.24C146.203 556.24 145.65 556.38 145.383 556.66C145.116 556.94 144.956 557.267 144.903 557.64C144.89 557.693 144.883 557.767 144.883 557.86C144.883 558.18 144.996 558.467 145.223 558.72C145.41 558.947 145.65 559.1 145.943 559.18C146.236 559.247 146.656 559.3 147.203 559.34C147.643 559.367 148.016 559.407 148.323 559.46C148.643 559.513 148.943 559.613 149.223 559.76C150.09 560.227 150.523 561.02 150.523 562.14C150.523 562.527 150.443 562.9 150.283 563.26C150.136 563.607 149.923 563.913 149.643 564.18C149.016 564.793 148.156 565.1 147.063 565.1C145.996 565.1 145.13 564.8 144.463 564.2C143.943 563.693 143.623 563.067 143.503 562.32H144.903ZM153.166 560.74C153.326 561.593 153.746 562.307 154.426 562.88C155.106 563.44 155.886 563.72 156.766 563.72C157.419 563.72 158.019 563.567 158.566 563.26C159.112 562.953 159.552 562.533 159.886 562L161.066 562.68C160.612 563.413 160.006 564 159.246 564.44C158.486 564.88 157.659 565.1 156.766 565.1C155.859 565.1 155.019 564.873 154.246 564.42C153.472 563.967 152.859 563.353 152.406 562.58C151.952 561.807 151.726 560.967 151.726 560.06C151.726 559.14 151.952 558.3 152.406 557.54C152.859 556.767 153.472 556.153 154.246 555.7C155.019 555.247 155.859 555.02 156.766 555.02C157.672 555.02 158.512 555.247 159.286 555.7C160.059 556.153 160.672 556.767 161.126 557.54C161.579 558.3 161.806 559.14 161.806 560.06C161.806 560.22 161.792 560.447 161.766 560.74H153.166ZM156.766 556.38C156.179 556.38 155.606 556.52 155.046 556.8C154.486 557.067 154.032 557.44 153.686 557.92C153.339 558.387 153.166 558.893 153.166 559.44H160.366C160.366 558.893 160.192 558.387 159.846 557.92C159.499 557.44 159.046 557.067 158.486 556.8C157.939 556.52 157.366 556.38 156.766 556.38ZM164.61 562.32C164.717 562.693 164.883 562.987 165.11 563.2C165.483 563.547 166.03 563.72 166.75 563.72C167.377 563.72 167.883 563.573 168.27 563.28C168.657 562.987 168.85 562.607 168.85 562.14C168.85 561.7 168.763 561.373 168.59 561.16C168.417 560.947 168.19 560.813 167.91 560.76C167.643 560.693 167.27 560.653 166.79 560.64C166.097 560.6 165.53 560.527 165.09 560.42C164.65 560.3 164.25 560.04 163.89 559.64C163.45 559.093 163.23 558.493 163.23 557.84C163.23 557.68 163.237 557.56 163.25 557.48C163.357 556.64 163.71 556 164.31 555.56C164.91 555.107 165.717 554.88 166.73 554.88H166.75C167.497 554.88 168.103 555.02 168.57 555.3C169.037 555.58 169.397 555.92 169.65 556.32C169.917 556.76 170.083 557.22 170.15 557.7H168.75C168.723 557.513 168.637 557.293 168.49 557.04C168.157 556.533 167.577 556.267 166.75 556.24C165.91 556.24 165.357 556.38 165.09 556.66C164.823 556.94 164.663 557.267 164.61 557.64C164.597 557.693 164.59 557.767 164.59 557.86C164.59 558.18 164.703 558.467 164.93 558.72C165.117 558.947 165.357 559.1 165.65 559.18C165.943 559.247 166.363 559.3 166.91 559.34C167.35 559.367 167.723 559.407 168.03 559.46C168.35 559.513 168.65 559.613 168.93 559.76C169.797 560.227 170.23 561.02 170.23 562.14C170.23 562.527 170.15 562.9 169.99 563.26C169.843 563.607 169.63 563.913 169.35 564.18C168.723 564.793 167.863 565.1 166.77 565.1C165.703 565.1 164.837 564.8 164.17 564.2C163.65 563.693 163.33 563.067 163.21 562.32H164.61ZM195.747 555L191.807 565H190.367L188.307 559.82L186.247 565H184.807L180.827 555H182.307L185.527 563.1L187.567 557.98L186.387 555H187.867L191.087 563.1L194.287 555H195.747ZM198.06 552.22C198.3 552.22 198.507 552.307 198.68 552.48C198.853 552.653 198.94 552.86 198.94 553.1C198.94 553.353 198.853 553.567 198.68 553.74C198.507 553.913 198.3 554 198.06 554C197.807 554 197.593 553.913 197.42 553.74C197.247 553.567 197.16 553.353 197.16 553.1C197.16 552.86 197.247 552.653 197.42 552.48C197.593 552.307 197.807 552.22 198.06 552.22ZM198.74 555V565H197.36V555H198.74ZM205.449 556.36H203.789V565H202.409V556.36H200.749V555H202.409V551.7H203.789V555H205.449V556.36ZM211.238 554.92C211.958 554.92 212.618 555.1 213.218 555.46C213.831 555.807 214.311 556.287 214.658 556.9C215.018 557.5 215.198 558.16 215.198 558.88V565H213.818V558.88C213.818 558.413 213.698 557.98 213.458 557.58C213.231 557.18 212.918 556.867 212.518 556.64C212.131 556.4 211.704 556.28 211.238 556.28C210.771 556.28 210.338 556.4 209.938 556.64C209.538 556.867 209.218 557.18 208.978 557.58C208.751 557.98 208.638 558.413 208.638 558.88V565H207.258V551.66H208.638V556.04C208.958 555.667 209.338 555.387 209.778 555.2C210.231 555.013 210.718 554.92 211.238 554.92ZM236.103 555.26V565H234.723V563.16C233.803 564.453 232.576 565.1 231.043 565.1C230.123 565.1 229.276 564.88 228.503 564.44C227.73 563.987 227.116 563.373 226.663 562.6C226.223 561.827 226.003 560.987 226.003 560.08C226.003 559.16 226.223 558.313 226.663 557.54C227.116 556.767 227.73 556.16 228.503 555.72C229.276 555.267 230.123 555.04 231.043 555.04C231.99 555.04 232.763 555.24 233.363 555.64C233.976 556.027 234.43 556.447 234.723 556.9V555.26H236.103ZM231.043 563.74C231.71 563.74 232.323 563.58 232.883 563.26C233.443 562.927 233.883 562.48 234.203 561.92C234.536 561.36 234.703 560.747 234.703 560.08C234.703 559.413 234.536 558.8 234.203 558.24C233.883 557.667 233.443 557.22 232.883 556.9C232.323 556.567 231.71 556.4 231.043 556.4C230.376 556.4 229.756 556.567 229.183 556.9C228.623 557.22 228.176 557.667 227.843 558.24C227.523 558.8 227.363 559.413 227.363 560.08C227.363 560.747 227.523 561.36 227.843 561.92C228.176 562.48 228.623 562.927 229.183 563.26C229.756 563.58 230.376 563.74 231.043 563.74ZM248.302 562.32C248.408 562.693 248.575 562.987 248.802 563.2C249.175 563.547 249.722 563.72 250.442 563.72C251.068 563.72 251.575 563.573 251.962 563.28C252.348 562.987 252.542 562.607 252.542 562.14C252.542 561.7 252.455 561.373 252.282 561.16C252.108 560.947 251.882 560.813 251.602 560.76C251.335 560.693 250.962 560.653 250.482 560.64C249.788 560.6 249.222 560.527 248.782 560.42C248.342 560.3 247.942 560.04 247.582 559.64C247.142 559.093 246.922 558.493 246.922 557.84C246.922 557.68 246.928 557.56 246.942 557.48C247.048 556.64 247.402 556 248.002 555.56C248.602 555.107 249.408 554.88 250.422 554.88H250.442C251.188 554.88 251.795 555.02 252.262 555.3C252.728 555.58 253.088 555.92 253.342 556.32C253.608 556.76 253.775 557.22 253.842 557.7H252.442C252.415 557.513 252.328 557.293 252.182 557.04C251.848 556.533 251.268 556.267 250.442 556.24C249.602 556.24 249.048 556.38 248.782 556.66C248.515 556.94 248.355 557.267 248.302 557.64C248.288 557.693 248.282 557.767 248.282 557.86C248.282 558.18 248.395 558.467 248.622 558.72C248.808 558.947 249.048 559.1 249.342 559.18C249.635 559.247 250.055 559.3 250.602 559.34C251.042 559.367 251.415 559.407 251.722 559.46C252.042 559.513 252.342 559.613 252.622 559.76C253.488 560.227 253.922 561.02 253.922 562.14C253.922 562.527 253.842 562.9 253.682 563.26C253.535 563.607 253.322 563.913 253.042 564.18C252.415 564.793 251.555 565.1 250.462 565.1C249.395 565.1 248.528 564.8 247.862 564.2C247.342 563.693 247.022 563.067 246.902 562.32H248.302ZM256.615 552.22C256.855 552.22 257.062 552.307 257.235 552.48C257.408 552.653 257.495 552.86 257.495 553.1C257.495 553.353 257.408 553.567 257.235 553.74C257.062 553.913 256.855 554 256.615 554C256.362 554 256.148 553.913 255.975 553.74C255.802 553.567 255.715 553.353 255.715 553.1C255.715 552.86 255.802 552.653 255.975 552.48C256.148 552.307 256.362 552.22 256.615 552.22ZM257.295 555V565H255.915V555H257.295ZM269.144 555C269.811 555 270.424 555.167 270.984 555.5C271.544 555.82 271.984 556.267 272.304 556.84C272.637 557.4 272.804 558.013 272.804 558.68V565H271.444V558.68C271.444 558.04 271.217 557.5 270.764 557.06C270.311 556.607 269.771 556.38 269.144 556.38C268.504 556.38 267.957 556.607 267.504 557.06C267.064 557.5 266.844 558.033 266.844 558.66V558.68V565H265.464V558.66C265.464 558.033 265.237 557.5 264.784 557.06C264.331 556.607 263.791 556.38 263.164 556.38C262.537 556.38 261.997 556.613 261.544 557.08C261.091 557.533 260.864 558.08 260.864 558.72V565H259.504V555.26H260.864V556.04C261.131 555.72 261.471 555.467 261.884 555.28C262.311 555.093 262.737 555 263.164 555C263.764 555 264.324 555.14 264.844 555.42C265.377 555.7 265.811 556.073 266.144 556.54C266.491 556.073 266.924 555.7 267.444 555.42C267.977 555.14 268.544 555 269.144 555ZM274.797 569.26V555.26H276.157V556.92C276.624 556.267 277.17 555.78 277.797 555.46C278.424 555.127 279.11 554.96 279.857 554.96C280.764 554.96 281.604 555.187 282.377 555.64C283.15 556.093 283.764 556.707 284.217 557.48C284.67 558.253 284.897 559.093 284.897 560C284.897 560.907 284.67 561.747 284.217 562.52C283.764 563.293 283.15 563.907 282.377 564.36C281.604 564.813 280.764 565.04 279.857 565.04C278.91 565.04 278.13 564.847 277.517 564.46C276.904 564.06 276.45 563.633 276.157 563.18V569.26H274.797ZM279.857 556.34C279.19 556.34 278.577 556.507 278.017 556.84C277.457 557.16 277.01 557.6 276.677 558.16C276.344 558.72 276.177 559.333 276.177 560C276.177 560.667 276.344 561.28 276.677 561.84C277.01 562.4 277.457 562.847 278.017 563.18C278.577 563.513 279.19 563.68 279.857 563.68C280.524 563.68 281.137 563.513 281.697 563.18C282.257 562.847 282.697 562.4 283.017 561.84C283.35 561.28 283.517 560.667 283.517 560C283.517 559.333 283.35 558.72 283.017 558.16C282.697 557.6 282.257 557.16 281.697 556.84C281.137 556.507 280.524 556.34 279.857 556.34ZM288.051 551.7V565H286.691V551.7H288.051ZM291.291 560.74C291.451 561.593 291.871 562.307 292.551 562.88C293.231 563.44 294.011 563.72 294.891 563.72C295.544 563.72 296.144 563.567 296.691 563.26C297.237 562.953 297.677 562.533 298.011 562L299.191 562.68C298.737 563.413 298.131 564 297.371 564.44C296.611 564.88 295.784 565.1 294.891 565.1C293.984 565.1 293.144 564.873 292.371 564.42C291.597 563.967 290.984 563.353 290.531 562.58C290.077 561.807 289.851 560.967 289.851 560.06C289.851 559.14 290.077 558.3 290.531 557.54C290.984 556.767 291.597 556.153 292.371 555.7C293.144 555.247 293.984 555.02 294.891 555.02C295.797 555.02 296.637 555.247 297.411 555.7C298.184 556.153 298.797 556.767 299.251 557.54C299.704 558.3 299.931 559.14 299.931 560.06C299.931 560.22 299.917 560.447 299.891 560.74H291.291ZM294.891 556.38C294.304 556.38 293.731 556.52 293.171 556.8C292.611 557.067 292.157 557.44 291.811 557.92C291.464 558.387 291.291 558.893 291.291 559.44H298.491C298.491 558.893 298.317 558.387 297.971 557.92C297.624 557.44 297.171 557.067 296.611 556.8C296.064 556.52 295.491 556.38 294.891 556.38ZM315.234 556.36H313.574V565H312.194V556.36H310.534V555H312.194V551.7H313.574V555H315.234V556.36ZM326.338 555.26V565H324.958V563.16C324.038 564.453 322.811 565.1 321.278 565.1C320.358 565.1 319.511 564.88 318.738 564.44C317.964 563.987 317.351 563.373 316.898 562.6C316.458 561.827 316.238 560.987 316.238 560.08C316.238 559.16 316.458 558.313 316.898 557.54C317.351 556.767 317.964 556.16 318.738 555.72C319.511 555.267 320.358 555.04 321.278 555.04C322.224 555.04 322.998 555.24 323.598 555.64C324.211 556.027 324.664 556.447 324.958 556.9V555.26H326.338ZM321.278 563.74C321.944 563.74 322.558 563.58 323.118 563.26C323.678 562.927 324.118 562.48 324.438 561.92C324.771 561.36 324.938 560.747 324.938 560.08C324.938 559.413 324.771 558.8 324.438 558.24C324.118 557.667 323.678 557.22 323.118 556.9C322.558 556.567 321.944 556.4 321.278 556.4C320.611 556.4 319.991 556.567 319.418 556.9C318.858 557.22 318.411 557.667 318.077 558.24C317.758 558.8 317.598 559.413 317.598 560.08C317.598 560.747 317.758 561.36 318.077 561.92C318.411 562.48 318.858 562.927 319.418 563.26C319.991 563.58 320.611 563.74 321.278 563.74ZM328.332 569.26V555.26H329.692V556.92C330.159 556.267 330.705 555.78 331.332 555.46C331.959 555.127 332.645 554.96 333.392 554.96C334.299 554.96 335.139 555.187 335.912 555.64C336.685 556.093 337.299 556.707 337.752 557.48C338.205 558.253 338.432 559.093 338.432 560C338.432 560.907 338.205 561.747 337.752 562.52C337.299 563.293 336.685 563.907 335.912 564.36C335.139 564.813 334.299 565.04 333.392 565.04C332.445 565.04 331.665 564.847 331.052 564.46C330.439 564.06 329.985 563.633 329.692 563.18V569.26H328.332ZM333.392 556.34C332.725 556.34 332.112 556.507 331.552 556.84C330.992 557.16 330.545 557.6 330.212 558.16C329.879 558.72 329.712 559.333 329.712 560C329.712 560.667 329.879 561.28 330.212 561.84C330.545 562.4 330.992 562.847 331.552 563.18C332.112 563.513 332.725 563.68 333.392 563.68C334.059 563.68 334.672 563.513 335.232 563.18C335.792 562.847 336.232 562.4 336.552 561.84C336.885 561.28 337.052 560.667 337.052 560C337.052 559.333 336.885 558.72 336.552 558.16C336.232 557.6 335.792 557.16 335.232 556.84C334.672 556.507 334.059 556.34 333.392 556.34ZM354.09 565.1C353.184 565.1 352.337 564.873 351.55 564.42C350.777 563.967 350.164 563.353 349.71 562.58C349.257 561.793 349.03 560.947 349.03 560.04C349.03 559.12 349.257 558.273 349.71 557.5C350.164 556.713 350.777 556.093 351.55 555.64C352.337 555.173 353.184 554.94 354.09 554.94C355.01 554.94 355.857 555.173 356.63 555.64C357.417 556.093 358.037 556.713 358.49 557.5C358.957 558.273 359.19 559.12 359.19 560.04C359.19 560.947 358.957 561.793 358.49 562.58C358.037 563.353 357.417 563.967 356.63 564.42C355.857 564.873 355.01 565.1 354.09 565.1ZM354.09 563.76C354.77 563.76 355.39 563.593 355.95 563.26C356.524 562.927 356.977 562.473 357.31 561.9C357.644 561.327 357.81 560.707 357.81 560.04C357.81 559.36 357.644 558.733 357.31 558.16C356.977 557.587 356.524 557.133 355.95 556.8C355.39 556.467 354.77 556.3 354.09 556.3C353.424 556.3 352.804 556.467 352.23 556.8C351.67 557.133 351.224 557.587 350.89 558.16C350.557 558.733 350.39 559.36 350.39 560.04C350.39 560.707 350.557 561.327 350.89 561.9C351.224 562.473 351.67 562.927 352.23 563.26C352.804 563.593 353.424 563.76 354.09 563.76ZM365.083 552.96C364.496 552.96 363.983 553.16 363.543 553.56C363.116 553.947 362.869 554.427 362.803 555H365.083V556.36H362.783V565H361.423V556.36H360.383V555H361.423C361.463 554.373 361.649 553.8 361.983 553.28C362.329 552.76 362.769 552.353 363.303 552.06C363.849 551.753 364.443 551.6 365.083 551.6V552.96ZM50.6499 575V584.92C50.6499 585.707 50.4566 586.433 50.0699 587.1C49.6833 587.767 49.1566 588.293 48.4899 588.68C47.8233 589.067 47.0966 589.26 46.3099 589.26C45.5499 589.26 44.8499 589.08 44.2099 588.72C43.5699 588.36 43.0499 587.873 42.6499 587.26L43.8499 586.58C44.1166 586.98 44.4633 587.3 44.8899 587.54C45.3299 587.78 45.8033 587.9 46.3099 587.9C46.8433 587.9 47.3366 587.767 47.7899 587.5C48.2566 587.233 48.6233 586.867 48.8899 586.4C49.1566 585.947 49.2899 585.453 49.2899 584.92V583.86C48.8899 584.233 48.4366 584.527 47.9299 584.74C47.4233 584.94 46.8833 585.04 46.3099 585.04C45.5366 585.04 44.8166 584.853 44.1499 584.48C43.4966 584.093 42.9699 583.58 42.5699 582.94C42.1833 582.3 41.9833 581.593 41.9699 580.82V575H43.3299V580.7C43.3299 581.233 43.4633 581.733 43.7299 582.2C43.9966 582.653 44.3566 583.013 44.8099 583.28C45.2766 583.547 45.7766 583.68 46.3099 583.68C46.8433 583.68 47.3366 583.547 47.7899 583.28C48.2566 583.013 48.6233 582.653 48.8899 582.2C49.1566 581.733 49.2899 581.233 49.2899 580.7V575H50.6499ZM57.3229 585.1C56.4162 585.1 55.5696 584.873 54.7829 584.42C54.0096 583.967 53.3962 583.353 52.9429 582.58C52.4896 581.793 52.2629 580.947 52.2629 580.04C52.2629 579.12 52.4896 578.273 52.9429 577.5C53.3962 576.713 54.0096 576.093 54.7829 575.64C55.5696 575.173 56.4162 574.94 57.3229 574.94C58.2429 574.94 59.0896 575.173 59.8629 575.64C60.6496 576.093 61.2696 576.713 61.7229 577.5C62.1896 578.273 62.4229 579.12 62.4229 580.04C62.4229 580.947 62.1896 581.793 61.7229 582.58C61.2696 583.353 60.6496 583.967 59.8629 584.42C59.0896 584.873 58.2429 585.1 57.3229 585.1ZM57.3229 583.76C58.0029 583.76 58.6229 583.593 59.1829 583.26C59.7562 582.927 60.2096 582.473 60.5429 581.9C60.8762 581.327 61.0429 580.707 61.0429 580.04C61.0429 579.36 60.8762 578.733 60.5429 578.16C60.2096 577.587 59.7562 577.133 59.1829 576.8C58.6229 576.467 58.0029 576.3 57.3229 576.3C56.6562 576.3 56.0362 576.467 55.4629 576.8C54.9029 577.133 54.4562 577.587 54.1229 578.16C53.7896 578.733 53.6229 579.36 53.6229 580.04C53.6229 580.707 53.7896 581.327 54.1229 581.9C54.4562 582.473 54.9029 582.927 55.4629 583.26C56.0362 583.593 56.6562 583.76 57.3229 583.76ZM68.0007 585.08C67.2807 585.08 66.614 584.907 66.0007 584.56C65.4007 584.2 64.9207 583.72 64.5607 583.12C64.2007 582.507 64.0207 581.84 64.0207 581.12V575H65.4007V581.12C65.4007 581.587 65.514 582.02 65.7407 582.42C65.9807 582.82 66.3007 583.14 66.7007 583.38C67.1007 583.607 67.534 583.72 68.0007 583.72C68.4674 583.72 68.9007 583.607 69.3007 583.38C69.7007 583.14 70.014 582.82 70.2407 582.42C70.4807 582.02 70.6007 581.587 70.6007 581.12V575H71.9607V584.9H70.6007V583.94C70.2674 584.313 69.874 584.6 69.4207 584.8C68.9807 584.987 68.5074 585.08 68.0007 585.08ZM78.5468 576.48C78.2401 576.347 77.9335 576.28 77.6268 576.28C77.0001 576.28 76.4601 576.507 76.0068 576.96C75.5535 577.413 75.3268 577.953 75.3268 578.58V585H73.9668V578.58C73.9668 577.86 74.1535 577.207 74.5268 576.62C74.9135 576.02 75.4135 575.573 76.0268 575.28L76.0668 575.26C76.5601 575.033 77.0801 574.92 77.6268 574.92C78.4801 574.92 79.2401 575.18 79.9068 575.7L78.5468 576.48ZM92.0651 571.7V585H90.7051V571.7H92.0651ZM94.0645 585V571.68H97.4245C98.6378 571.68 99.7511 571.98 100.764 572.58C101.778 573.18 102.584 573.987 103.184 575C103.784 576.013 104.084 577.127 104.084 578.34C104.084 579.553 103.784 580.667 103.184 581.68C102.584 582.693 101.778 583.5 100.764 584.1C99.7511 584.7 98.6378 585 97.4245 585H94.0645ZM97.4245 583.64C98.3845 583.64 99.2711 583.407 100.084 582.94C100.898 582.46 101.538 581.813 102.004 581C102.484 580.187 102.724 579.3 102.724 578.34C102.724 577.38 102.484 576.493 102.004 575.68C101.538 574.867 100.898 574.227 100.084 573.76C99.2711 573.28 98.3845 573.04 97.4245 573.04H95.4445V583.64H97.4245ZM123.565 583.32C123.085 583.88 122.511 584.32 121.845 584.64C121.191 584.947 120.485 585.1 119.725 585.1C118.818 585.1 117.978 584.873 117.205 584.42C116.431 583.967 115.818 583.353 115.365 582.58C114.911 581.807 114.685 580.967 114.685 580.06C114.685 579.153 114.911 578.313 115.365 577.54C115.818 576.767 116.431 576.153 117.205 575.7C117.978 575.247 118.818 575.02 119.725 575.02C120.485 575.02 121.191 575.18 121.845 575.5C122.511 575.807 123.085 576.24 123.565 576.8L122.345 577.5C122.011 577.153 121.618 576.887 121.165 576.7C120.711 576.5 120.231 576.4 119.725 576.4C119.058 576.4 118.445 576.567 117.885 576.9C117.325 577.22 116.878 577.66 116.545 578.22C116.211 578.78 116.045 579.393 116.045 580.06C116.045 580.727 116.211 581.34 116.545 581.9C116.878 582.46 117.325 582.907 117.885 583.24C118.445 583.56 119.058 583.72 119.725 583.72C120.231 583.72 120.711 583.627 121.165 583.44C121.618 583.24 122.011 582.967 122.345 582.62L123.565 583.32ZM134.668 575.26V585H133.288V583.16C132.368 584.453 131.141 585.1 129.608 585.1C128.688 585.1 127.841 584.88 127.068 584.44C126.294 583.987 125.681 583.373 125.228 582.6C124.788 581.827 124.568 580.987 124.568 580.08C124.568 579.16 124.788 578.313 125.228 577.54C125.681 576.767 126.294 576.16 127.068 575.72C127.841 575.267 128.688 575.04 129.608 575.04C130.554 575.04 131.328 575.24 131.928 575.64C132.541 576.027 132.994 576.447 133.288 576.9V575.26H134.668ZM129.608 583.74C130.274 583.74 130.888 583.58 131.448 583.26C132.008 582.927 132.448 582.48 132.768 581.92C133.101 581.36 133.268 580.747 133.268 580.08C133.268 579.413 133.101 578.8 132.768 578.24C132.448 577.667 132.008 577.22 131.448 576.9C130.888 576.567 130.274 576.4 129.608 576.4C128.941 576.4 128.321 576.567 127.748 576.9C127.188 577.22 126.741 577.667 126.408 578.24C126.088 578.8 125.928 579.413 125.928 580.08C125.928 580.747 126.088 581.36 126.408 581.92C126.741 582.48 127.188 582.927 127.748 583.26C128.321 583.58 128.941 583.74 129.608 583.74ZM141.242 576.48C140.935 576.347 140.629 576.28 140.322 576.28C139.695 576.28 139.155 576.507 138.702 576.96C138.249 577.413 138.022 577.953 138.022 578.58V585H136.662V578.58C136.662 577.86 136.849 577.207 137.222 576.62C137.609 576.02 138.109 575.573 138.722 575.28L138.762 575.26C139.255 575.033 139.775 574.92 140.322 574.92C141.175 574.92 141.935 575.18 142.602 575.7L141.242 576.48ZM152.54 585H151.2V583.14C150.226 584.447 148.98 585.1 147.46 585.1C146.54 585.1 145.693 584.873 144.92 584.42C144.146 583.967 143.533 583.353 143.08 582.58C142.626 581.793 142.4 580.947 142.4 580.04C142.4 579.133 142.626 578.293 143.08 577.52C143.533 576.733 144.146 576.113 144.92 575.66C145.693 575.207 146.54 574.98 147.46 574.98C149.033 574.98 150.28 575.6 151.2 576.84V571.72H152.54V585ZM151.16 580.04C151.16 579.373 150.993 578.76 150.66 578.2C150.326 577.64 149.873 577.193 149.3 576.86C148.74 576.527 148.126 576.36 147.46 576.36C146.793 576.36 146.18 576.527 145.62 576.86C145.06 577.193 144.613 577.64 144.28 578.2C143.946 578.76 143.78 579.373 143.78 580.04C143.78 580.707 143.946 581.327 144.28 581.9C144.613 582.46 145.06 582.907 145.62 583.24C146.18 583.573 146.793 583.74 147.46 583.74C148.126 583.74 148.74 583.573 149.3 583.24C149.873 582.907 150.326 582.46 150.66 581.9C150.993 581.327 151.16 580.707 151.16 580.04ZM155.293 584.74C155.133 584.887 154.94 584.96 154.713 584.96C154.5 584.96 154.313 584.88 154.153 584.72C154.007 584.56 153.933 584.373 153.933 584.16C153.933 583.947 154.007 583.76 154.153 583.6C154.313 583.44 154.5 583.36 154.713 583.36C154.94 583.36 155.133 583.44 155.293 583.6C155.453 583.747 155.533 583.933 155.533 584.16C155.533 584.387 155.453 584.58 155.293 584.74ZM176.245 571.7V585H174.625L167.925 574.26V585H166.545V571.7H167.985L174.885 582.74V571.7H176.245ZM183.104 585.1C182.197 585.1 181.351 584.873 180.564 584.42C179.791 583.967 179.177 583.353 178.724 582.58C178.271 581.793 178.044 580.947 178.044 580.04C178.044 579.12 178.271 578.273 178.724 577.5C179.177 576.713 179.791 576.093 180.564 575.64C181.351 575.173 182.197 574.94 183.104 574.94C184.024 574.94 184.871 575.173 185.644 575.64C186.431 576.093 187.051 576.713 187.504 577.5C187.971 578.273 188.204 579.12 188.204 580.04C188.204 580.947 187.971 581.793 187.504 582.58C187.051 583.353 186.431 583.967 185.644 584.42C184.871 584.873 184.024 585.1 183.104 585.1ZM183.104 583.76C183.784 583.76 184.404 583.593 184.964 583.26C185.537 582.927 185.991 582.473 186.324 581.9C186.657 581.327 186.824 580.707 186.824 580.04C186.824 579.36 186.657 578.733 186.324 578.16C185.991 577.587 185.537 577.133 184.964 576.8C184.404 576.467 183.784 576.3 183.104 576.3C182.437 576.3 181.817 576.467 181.244 576.8C180.684 577.133 180.237 577.587 179.904 578.16C179.571 578.733 179.404 579.36 179.404 580.04C179.404 580.707 179.571 581.327 179.904 581.9C180.237 582.473 180.684 582.927 181.244 583.26C181.817 583.593 182.437 583.76 183.104 583.76ZM207.686 583.32C207.206 583.88 206.633 584.32 205.966 584.64C205.313 584.947 204.606 585.1 203.846 585.1C202.939 585.1 202.099 584.873 201.326 584.42C200.553 583.967 199.939 583.353 199.486 582.58C199.033 581.807 198.806 580.967 198.806 580.06C198.806 579.153 199.033 578.313 199.486 577.54C199.939 576.767 200.553 576.153 201.326 575.7C202.099 575.247 202.939 575.02 203.846 575.02C204.606 575.02 205.313 575.18 205.966 575.5C206.633 575.807 207.206 576.24 207.686 576.8L206.466 577.5C206.133 577.153 205.739 576.887 205.286 576.7C204.833 576.5 204.353 576.4 203.846 576.4C203.179 576.4 202.566 576.567 202.006 576.9C201.446 577.22 200.999 577.66 200.666 578.22C200.333 578.78 200.166 579.393 200.166 580.06C200.166 580.727 200.333 581.34 200.666 581.9C200.999 582.46 201.446 582.907 202.006 583.24C202.566 583.56 203.179 583.72 203.846 583.72C204.353 583.72 204.833 583.627 205.286 583.44C205.739 583.24 206.133 582.967 206.466 582.62L207.686 583.32ZM218.789 575.26V585H217.409V583.16C216.489 584.453 215.262 585.1 213.729 585.1C212.809 585.1 211.962 584.88 211.189 584.44C210.415 583.987 209.802 583.373 209.349 582.6C208.909 581.827 208.689 580.987 208.689 580.08C208.689 579.16 208.909 578.313 209.349 577.54C209.802 576.767 210.415 576.16 211.189 575.72C211.962 575.267 212.809 575.04 213.729 575.04C214.675 575.04 215.449 575.24 216.049 575.64C216.662 576.027 217.115 576.447 217.409 576.9V575.26H218.789ZM213.729 583.74C214.395 583.74 215.009 583.58 215.569 583.26C216.129 582.927 216.569 582.48 216.889 581.92C217.222 581.36 217.389 580.747 217.389 580.08C217.389 579.413 217.222 578.8 216.889 578.24C216.569 577.667 216.129 577.22 215.569 576.9C215.009 576.567 214.395 576.4 213.729 576.4C213.062 576.4 212.442 576.567 211.869 576.9C211.309 577.22 210.862 577.667 210.529 578.24C210.209 578.8 210.049 579.413 210.049 580.08C210.049 580.747 210.209 581.36 210.529 581.92C210.862 582.48 211.309 582.927 211.869 583.26C212.442 583.58 213.062 583.74 213.729 583.74ZM221.593 582.32C221.699 582.693 221.866 582.987 222.093 583.2C222.466 583.547 223.013 583.72 223.733 583.72C224.359 583.72 224.866 583.573 225.253 583.28C225.639 582.987 225.833 582.607 225.833 582.14C225.833 581.7 225.746 581.373 225.573 581.16C225.399 580.947 225.173 580.813 224.893 580.76C224.626 580.693 224.253 580.653 223.773 580.64C223.079 580.6 222.513 580.527 222.073 580.42C221.633 580.3 221.233 580.04 220.873 579.64C220.433 579.093 220.213 578.493 220.213 577.84C220.213 577.68 220.219 577.56 220.233 577.48C220.339 576.64 220.693 576 221.293 575.56C221.893 575.107 222.699 574.88 223.713 574.88H223.733C224.479 574.88 225.086 575.02 225.553 575.3C226.019 575.58 226.379 575.92 226.633 576.32C226.899 576.76 227.066 577.22 227.133 577.7H225.733C225.706 577.513 225.619 577.293 225.473 577.04C225.139 576.533 224.559 576.267 223.733 576.24C222.893 576.24 222.339 576.38 222.073 576.66C221.806 576.94 221.646 577.267 221.593 577.64C221.579 577.693 221.573 577.767 221.573 577.86C221.573 578.18 221.686 578.467 221.913 578.72C222.099 578.947 222.339 579.1 222.633 579.18C222.926 579.247 223.346 579.3 223.893 579.34C224.333 579.367 224.706 579.407 225.013 579.46C225.333 579.513 225.633 579.613 225.913 579.76C226.779 580.227 227.213 581.02 227.213 582.14C227.213 582.527 227.133 582.9 226.973 583.26C226.826 583.607 226.613 583.913 226.333 584.18C225.706 584.793 224.846 585.1 223.753 585.1C222.686 585.1 221.819 584.8 221.153 584.2C220.633 583.693 220.313 583.067 220.193 582.32H221.593ZM232.986 574.92C233.706 574.92 234.366 575.1 234.966 575.46C235.579 575.807 236.059 576.287 236.406 576.9C236.766 577.5 236.946 578.16 236.946 578.88V585H235.566V578.88C235.566 578.413 235.446 577.98 235.206 577.58C234.979 577.18 234.666 576.867 234.266 576.64C233.879 576.4 233.453 576.28 232.986 576.28C232.519 576.28 232.086 576.4 231.686 576.64C231.286 576.867 230.966 577.18 230.726 577.58C230.499 577.98 230.386 578.413 230.386 578.88V585H229.006V571.66H230.386V576.04C230.706 575.667 231.086 575.387 231.526 575.2C231.979 575.013 232.466 574.92 232.986 574.92ZM241.367 582.86L239.987 587.04H238.747L239.927 582.86H241.367ZM256.325 575C257.045 575 257.705 575.18 258.305 575.54C258.919 575.887 259.405 576.367 259.765 576.98C260.125 577.58 260.305 578.24 260.305 578.96V585H258.925V578.96C258.925 578.493 258.805 578.067 258.565 577.68C258.339 577.28 258.025 576.967 257.625 576.74C257.225 576.5 256.792 576.38 256.325 576.38C255.859 576.38 255.425 576.5 255.025 576.74C254.625 576.967 254.305 577.28 254.065 577.68C253.839 578.067 253.725 578.493 253.725 578.96V585H252.365V575.26H253.725V576.14C254.059 575.767 254.445 575.487 254.885 575.3C255.339 575.1 255.819 575 256.325 575ZM266.971 585.1C266.065 585.1 265.218 584.873 264.431 584.42C263.658 583.967 263.045 583.353 262.591 582.58C262.138 581.793 261.911 580.947 261.911 580.04C261.911 579.12 262.138 578.273 262.591 577.5C263.045 576.713 263.658 576.093 264.431 575.64C265.218 575.173 266.065 574.94 266.971 574.94C267.891 574.94 268.738 575.173 269.511 575.64C270.298 576.093 270.918 576.713 271.371 577.5C271.838 578.273 272.071 579.12 272.071 580.04C272.071 580.947 271.838 581.793 271.371 582.58C270.918 583.353 270.298 583.967 269.511 584.42C268.738 584.873 267.891 585.1 266.971 585.1ZM266.971 583.76C267.651 583.76 268.271 583.593 268.831 583.26C269.405 582.927 269.858 582.473 270.191 581.9C270.525 581.327 270.691 580.707 270.691 580.04C270.691 579.36 270.525 578.733 270.191 578.16C269.858 577.587 269.405 577.133 268.831 576.8C268.271 576.467 267.651 576.3 266.971 576.3C266.305 576.3 265.685 576.467 265.111 576.8C264.551 577.133 264.105 577.587 263.771 578.16C263.438 578.733 263.271 579.36 263.271 580.04C263.271 580.707 263.438 581.327 263.771 581.9C264.105 582.473 264.551 582.927 265.111 583.26C265.685 583.593 266.305 583.76 266.971 583.76ZM286.853 574.92C287.573 574.92 288.233 575.1 288.833 575.46C289.446 575.807 289.926 576.287 290.273 576.9C290.633 577.5 290.813 578.16 290.813 578.88V585H289.433V578.88C289.433 578.413 289.313 577.98 289.073 577.58C288.846 577.18 288.533 576.867 288.133 576.64C287.746 576.4 287.32 576.28 286.853 576.28C286.386 576.28 285.953 576.4 285.553 576.64C285.153 576.867 284.833 577.18 284.593 577.58C284.366 577.98 284.253 578.413 284.253 578.88V585H282.873V571.66H284.253V576.04C284.573 575.667 284.953 575.387 285.393 575.2C285.846 575.013 286.333 574.92 286.853 574.92ZM302.714 575.26V585H301.334V583.16C300.414 584.453 299.188 585.1 297.654 585.1C296.734 585.1 295.888 584.88 295.114 584.44C294.341 583.987 293.728 583.373 293.274 582.6C292.834 581.827 292.614 580.987 292.614 580.08C292.614 579.16 292.834 578.313 293.274 577.54C293.728 576.767 294.341 576.16 295.114 575.72C295.888 575.267 296.734 575.04 297.654 575.04C298.601 575.04 299.374 575.24 299.974 575.64C300.588 576.027 301.041 576.447 301.334 576.9V575.26H302.714ZM297.654 583.74C298.321 583.74 298.934 583.58 299.494 583.26C300.054 582.927 300.494 582.48 300.814 581.92C301.148 581.36 301.314 580.747 301.314 580.08C301.314 579.413 301.148 578.8 300.814 578.24C300.494 577.667 300.054 577.22 299.494 576.9C298.934 576.567 298.321 576.4 297.654 576.4C296.988 576.4 296.368 576.567 295.794 576.9C295.234 577.22 294.788 577.667 294.454 578.24C294.134 578.8 293.974 579.413 293.974 580.08C293.974 580.747 294.134 581.36 294.454 581.92C294.788 582.48 295.234 582.927 295.794 583.26C296.368 583.58 296.988 583.74 297.654 583.74ZM305.518 582.32C305.625 582.693 305.792 582.987 306.018 583.2C306.392 583.547 306.938 583.72 307.658 583.72C308.285 583.72 308.792 583.573 309.178 583.28C309.565 582.987 309.758 582.607 309.758 582.14C309.758 581.7 309.672 581.373 309.498 581.16C309.325 580.947 309.098 580.813 308.818 580.76C308.552 580.693 308.178 580.653 307.698 580.64C307.005 580.6 306.438 580.527 305.998 580.42C305.558 580.3 305.158 580.04 304.798 579.64C304.358 579.093 304.138 578.493 304.138 577.84C304.138 577.68 304.145 577.56 304.158 577.48C304.265 576.64 304.618 576 305.218 575.56C305.818 575.107 306.625 574.88 307.638 574.88H307.658C308.405 574.88 309.012 575.02 309.478 575.3C309.945 575.58 310.305 575.92 310.558 576.32C310.825 576.76 310.992 577.22 311.058 577.7H309.658C309.632 577.513 309.545 577.293 309.398 577.04C309.065 576.533 308.485 576.267 307.658 576.24C306.818 576.24 306.265 576.38 305.998 576.66C305.732 576.94 305.572 577.267 305.518 577.64C305.505 577.693 305.498 577.767 305.498 577.86C305.498 578.18 305.612 578.467 305.838 578.72C306.025 578.947 306.265 579.1 306.558 579.18C306.852 579.247 307.272 579.3 307.818 579.34C308.258 579.367 308.632 579.407 308.938 579.46C309.258 579.513 309.558 579.613 309.838 579.76C310.705 580.227 311.138 581.02 311.138 582.14C311.138 582.527 311.058 582.9 310.898 583.26C310.752 583.607 310.538 583.913 310.258 584.18C309.632 584.793 308.772 585.1 307.678 585.1C306.612 585.1 305.745 584.8 305.078 584.2C304.558 583.693 304.238 583.067 304.118 582.32H305.518ZM313.741 582.32C313.848 582.693 314.014 582.987 314.241 583.2C314.614 583.547 315.161 583.72 315.881 583.72C316.508 583.72 317.014 583.573 317.401 583.28C317.788 582.987 317.981 582.607 317.981 582.14C317.981 581.7 317.894 581.373 317.721 581.16C317.548 580.947 317.321 580.813 317.041 580.76C316.774 580.693 316.401 580.653 315.921 580.64C315.228 580.6 314.661 580.527 314.221 580.42C313.781 580.3 313.381 580.04 313.021 579.64C312.581 579.093 312.361 578.493 312.361 577.84C312.361 577.68 312.368 577.56 312.381 577.48C312.488 576.64 312.841 576 313.441 575.56C314.041 575.107 314.848 574.88 315.861 574.88H315.881C316.628 574.88 317.234 575.02 317.701 575.3C318.168 575.58 318.528 575.92 318.781 576.32C319.048 576.76 319.214 577.22 319.281 577.7H317.881C317.854 577.513 317.768 577.293 317.621 577.04C317.288 576.533 316.708 576.267 315.881 576.24C315.041 576.24 314.488 576.38 314.221 576.66C313.954 576.94 313.794 577.267 313.741 577.64C313.728 577.693 313.721 577.767 313.721 577.86C313.721 578.18 313.834 578.467 314.061 578.72C314.248 578.947 314.488 579.1 314.781 579.18C315.074 579.247 315.494 579.3 316.041 579.34C316.481 579.367 316.854 579.407 317.161 579.46C317.481 579.513 317.781 579.613 318.061 579.76C318.928 580.227 319.361 581.02 319.361 582.14C319.361 582.527 319.281 582.9 319.121 583.26C318.974 583.607 318.761 583.913 318.481 584.18C317.854 584.793 316.994 585.1 315.901 585.1C314.834 585.1 313.968 584.8 313.301 584.2C312.781 583.693 312.461 583.067 312.341 582.32H313.741ZM322.514 571.7V585H321.154V571.7H322.514ZM325.754 580.74C325.914 581.593 326.334 582.307 327.014 582.88C327.694 583.44 328.474 583.72 329.354 583.72C330.007 583.72 330.607 583.567 331.154 583.26C331.7 582.953 332.14 582.533 332.474 582L333.654 582.68C333.2 583.413 332.594 584 331.834 584.44C331.074 584.88 330.247 585.1 329.354 585.1C328.447 585.1 327.607 584.873 326.834 584.42C326.06 583.967 325.447 583.353 324.994 582.58C324.54 581.807 324.314 580.967 324.314 580.06C324.314 579.14 324.54 578.3 324.994 577.54C325.447 576.767 326.06 576.153 326.834 575.7C327.607 575.247 328.447 575.02 329.354 575.02C330.26 575.02 331.1 575.247 331.874 575.7C332.647 576.153 333.26 576.767 333.714 577.54C334.167 578.3 334.394 579.14 334.394 580.06C334.394 580.22 334.38 580.447 334.354 580.74H325.754ZM329.354 576.38C328.767 576.38 328.194 576.52 327.634 576.8C327.074 577.067 326.62 577.44 326.274 577.92C325.927 578.387 325.754 578.893 325.754 579.44H332.954C332.954 578.893 332.78 578.387 332.434 577.92C332.087 577.44 331.634 577.067 331.074 576.8C330.527 576.52 329.954 576.38 329.354 576.38ZM344.997 580.08V578.72H352.037V580.08H344.997ZM46.3765 592.22C46.6298 592.22 46.8432 592.307 47.0165 592.48C47.1898 592.653 47.2765 592.86 47.2765 593.1C47.2765 593.353 47.1898 593.567 47.0165 593.74C46.8432 593.913 46.6298 594 46.3765 594C46.1365 594 45.9298 593.913 45.7565 593.74C45.5832 593.567 45.4965 593.353 45.4965 593.1C45.4965 592.86 45.5832 592.653 45.7565 592.48C45.9298 592.307 46.1365 592.22 46.3765 592.22ZM43.3965 607.9C44.0365 607.9 44.5765 607.673 45.0165 607.22C45.4698 606.767 45.6965 606.227 45.6965 605.6V595H47.0765V605.6C47.0765 606.267 46.9098 606.88 46.5765 607.44C46.2565 608 45.8098 608.44 45.2365 608.76C44.6765 609.093 44.0632 609.26 43.3965 609.26V607.9ZM53.0593 605.08C52.3393 605.08 51.6726 604.907 51.0593 604.56C50.4593 604.2 49.9793 603.72 49.6193 603.12C49.2593 602.507 49.0793 601.84 49.0793 601.12V595H50.4593V601.12C50.4593 601.587 50.5726 602.02 50.7993 602.42C51.0393 602.82 51.3593 603.14 51.7593 603.38C52.1593 603.607 52.5926 603.72 53.0593 603.72C53.526 603.72 53.9593 603.607 54.3593 603.38C54.7593 603.14 55.0726 602.82 55.2993 602.42C55.5393 602.02 55.6593 601.587 55.6593 601.12V595H57.0193V604.9H55.6593V603.94C55.326 604.313 54.9326 604.6 54.4793 604.8C54.0393 604.987 53.566 605.08 53.0593 605.08ZM60.0301 602.32C60.1367 602.693 60.3034 602.987 60.5301 603.2C60.9034 603.547 61.4501 603.72 62.1701 603.72C62.7967 603.72 63.3034 603.573 63.6901 603.28C64.0767 602.987 64.2701 602.607 64.2701 602.14C64.2701 601.7 64.1834 601.373 64.0101 601.16C63.8367 600.947 63.6101 600.813 63.3301 600.76C63.0634 600.693 62.6901 600.653 62.2101 600.64C61.5167 600.6 60.9501 600.527 60.5101 600.42C60.0701 600.3 59.6701 600.04 59.3101 599.64C58.8701 599.093 58.6501 598.493 58.6501 597.84C58.6501 597.68 58.6567 597.56 58.6701 597.48C58.7767 596.64 59.1301 596 59.7301 595.56C60.3301 595.107 61.1367 594.88 62.1501 594.88H62.1701C62.9167 594.88 63.5234 595.02 63.9901 595.3C64.4567 595.58 64.8167 595.92 65.0701 596.32C65.3367 596.76 65.5034 597.22 65.5701 597.7H64.1701C64.1434 597.513 64.0567 597.293 63.9101 597.04C63.5767 596.533 62.9967 596.267 62.1701 596.24C61.3301 596.24 60.7767 596.38 60.5101 596.66C60.2434 596.94 60.0834 597.267 60.0301 597.64C60.0167 597.693 60.0101 597.767 60.0101 597.86C60.0101 598.18 60.1234 598.467 60.3501 598.72C60.5367 598.947 60.7767 599.1 61.0701 599.18C61.3634 599.247 61.7834 599.3 62.3301 599.34C62.7701 599.367 63.1434 599.407 63.4501 599.46C63.7701 599.513 64.0701 599.613 64.3501 599.76C65.2167 600.227 65.6501 601.02 65.6501 602.14C65.6501 602.527 65.5701 602.9 65.4101 603.26C65.2634 603.607 65.0501 603.913 64.7701 604.18C64.1434 604.793 63.2834 605.1 62.1901 605.1C61.1234 605.1 60.2567 604.8 59.5901 604.2C59.0701 603.693 58.7501 603.067 58.6301 602.32H60.0301ZM71.9434 596.36H70.2834V605H68.9034V596.36H67.2434V595H68.9034V591.7H70.2834V595H71.9434V596.36ZM83.9959 600.74C84.1559 601.593 84.5759 602.307 85.2559 602.88C85.9359 603.44 86.7159 603.72 87.5959 603.72C88.2492 603.72 88.8492 603.567 89.3959 603.26C89.9425 602.953 90.3825 602.533 90.7159 602L91.8959 602.68C91.4425 603.413 90.8359 604 90.0759 604.44C89.3159 604.88 88.4892 605.1 87.5959 605.1C86.6892 605.1 85.8492 604.873 85.0759 604.42C84.3025 603.967 83.6892 603.353 83.2359 602.58C82.7825 601.807 82.5559 600.967 82.5559 600.06C82.5559 599.14 82.7825 598.3 83.2359 597.54C83.6892 596.767 84.3025 596.153 85.0759 595.7C85.8492 595.247 86.6892 595.02 87.5959 595.02C88.5025 595.02 89.3425 595.247 90.1159 595.7C90.8892 596.153 91.5025 596.767 91.9559 597.54C92.4092 598.3 92.6359 599.14 92.6359 600.06C92.6359 600.22 92.6225 600.447 92.5959 600.74H83.9959ZM87.5959 596.38C87.0092 596.38 86.4359 596.52 85.8759 596.8C85.3159 597.067 84.8625 597.44 84.5159 597.92C84.1692 598.387 83.9959 598.893 83.9959 599.44H91.1959C91.1959 598.893 91.0225 598.387 90.6759 597.92C90.3292 597.44 89.8759 597.067 89.3159 596.8C88.7692 596.52 88.1959 596.38 87.5959 596.38ZM99.1355 592.96C98.5489 592.96 98.0355 593.16 97.5955 593.56C97.1689 593.947 96.9222 594.427 96.8555 595H99.1355V596.36H96.8355V605H95.4755V596.36H94.4355V595H95.4755C95.5155 594.373 95.7022 593.8 96.0355 593.28C96.3822 592.76 96.8222 592.353 97.3555 592.06C97.9022 591.753 98.4955 591.6 99.1355 591.6V592.96ZM105.444 592.96C104.857 592.96 104.344 593.16 103.904 593.56C103.477 593.947 103.231 594.427 103.164 595H105.444V596.36H103.144V605H101.784V596.36H100.744V595H101.784C101.824 594.373 102.011 593.8 102.344 593.28C102.691 592.76 103.131 592.353 103.664 592.06C104.211 591.753 104.804 591.6 105.444 591.6V592.96ZM111.112 605.1C110.205 605.1 109.359 604.873 108.572 604.42C107.799 603.967 107.185 603.353 106.732 602.58C106.279 601.793 106.052 600.947 106.052 600.04C106.052 599.12 106.279 598.273 106.732 597.5C107.185 596.713 107.799 596.093 108.572 595.64C109.359 595.173 110.205 594.94 111.112 594.94C112.032 594.94 112.879 595.173 113.652 595.64C114.439 596.093 115.059 596.713 115.512 597.5C115.979 598.273 116.212 599.12 116.212 600.04C116.212 600.947 115.979 601.793 115.512 602.58C115.059 603.353 114.439 603.967 113.652 604.42C112.879 604.873 112.032 605.1 111.112 605.1ZM111.112 603.76C111.792 603.76 112.412 603.593 112.972 603.26C113.545 602.927 113.999 602.473 114.332 601.9C114.665 601.327 114.832 600.707 114.832 600.04C114.832 599.36 114.665 598.733 114.332 598.16C113.999 597.587 113.545 597.133 112.972 596.8C112.412 596.467 111.792 596.3 111.112 596.3C110.445 596.3 109.825 596.467 109.252 596.8C108.692 597.133 108.245 597.587 107.912 598.16C107.579 598.733 107.412 599.36 107.412 600.04C107.412 600.707 107.579 601.327 107.912 601.9C108.245 602.473 108.692 602.927 109.252 603.26C109.825 603.593 110.445 603.76 111.112 603.76ZM122.59 596.48C122.283 596.347 121.976 596.28 121.67 596.28C121.043 596.28 120.503 596.507 120.05 596.96C119.596 597.413 119.37 597.953 119.37 598.58V605H118.01V598.58C118.01 597.86 118.196 597.207 118.57 596.62C118.956 596.02 119.456 595.573 120.07 595.28L120.11 595.26C120.603 595.033 121.123 594.92 121.67 594.92C122.523 594.92 123.283 595.18 123.95 595.7L122.59 596.48ZM130.049 596.36H128.389V605H127.009V596.36H125.349V595H127.009V591.7H128.389V595H130.049V596.36ZM133.217 591.7V605H131.857V591.7H133.217ZM136.457 600.74C136.617 601.593 137.037 602.307 137.717 602.88C138.397 603.44 139.177 603.72 140.057 603.72C140.71 603.72 141.31 603.567 141.857 603.26C142.403 602.953 142.843 602.533 143.177 602L144.357 602.68C143.903 603.413 143.297 604 142.537 604.44C141.777 604.88 140.95 605.1 140.057 605.1C139.15 605.1 138.31 604.873 137.537 604.42C136.763 603.967 136.15 603.353 135.697 602.58C135.243 601.807 135.017 600.967 135.017 600.06C135.017 599.14 135.243 598.3 135.697 597.54C136.15 596.767 136.763 596.153 137.537 595.7C138.31 595.247 139.15 595.02 140.057 595.02C140.963 595.02 141.803 595.247 142.577 595.7C143.35 596.153 143.963 596.767 144.417 597.54C144.87 598.3 145.097 599.14 145.097 600.06C145.097 600.22 145.083 600.447 145.057 600.74H136.457ZM140.057 596.38C139.47 596.38 138.897 596.52 138.337 596.8C137.777 597.067 137.323 597.44 136.977 597.92C136.63 598.387 136.457 598.893 136.457 599.44H143.657C143.657 598.893 143.483 598.387 143.137 597.92C142.79 597.44 142.337 597.067 141.777 596.8C141.23 596.52 140.657 596.38 140.057 596.38ZM147.901 602.32C148.008 602.693 148.175 602.987 148.401 603.2C148.775 603.547 149.321 603.72 150.041 603.72C150.668 603.72 151.175 603.573 151.561 603.28C151.948 602.987 152.141 602.607 152.141 602.14C152.141 601.7 152.055 601.373 151.881 601.16C151.708 600.947 151.481 600.813 151.201 600.76C150.935 600.693 150.561 600.653 150.081 600.64C149.388 600.6 148.821 600.527 148.381 600.42C147.941 600.3 147.541 600.04 147.181 599.64C146.741 599.093 146.521 598.493 146.521 597.84C146.521 597.68 146.528 597.56 146.541 597.48C146.648 596.64 147.001 596 147.601 595.56C148.201 595.107 149.008 594.88 150.021 594.88H150.041C150.788 594.88 151.395 595.02 151.861 595.3C152.328 595.58 152.688 595.92 152.941 596.32C153.208 596.76 153.375 597.22 153.441 597.7H152.041C152.015 597.513 151.928 597.293 151.781 597.04C151.448 596.533 150.868 596.267 150.041 596.24C149.201 596.24 148.648 596.38 148.381 596.66C148.115 596.94 147.955 597.267 147.901 597.64C147.888 597.693 147.881 597.767 147.881 597.86C147.881 598.18 147.995 598.467 148.221 598.72C148.408 598.947 148.648 599.1 148.941 599.18C149.235 599.247 149.655 599.3 150.201 599.34C150.641 599.367 151.015 599.407 151.321 599.46C151.641 599.513 151.941 599.613 152.221 599.76C153.088 600.227 153.521 601.02 153.521 602.14C153.521 602.527 153.441 602.9 153.281 603.26C153.135 603.607 152.921 603.913 152.641 604.18C152.015 604.793 151.155 605.1 150.061 605.1C148.995 605.1 148.128 604.8 147.461 604.2C146.941 603.693 146.621 603.067 146.501 602.32H147.901ZM156.124 602.32C156.23 602.693 156.397 602.987 156.624 603.2C156.997 603.547 157.544 603.72 158.264 603.72C158.89 603.72 159.397 603.573 159.784 603.28C160.17 602.987 160.364 602.607 160.364 602.14C160.364 601.7 160.277 601.373 160.104 601.16C159.93 600.947 159.704 600.813 159.424 600.76C159.157 600.693 158.784 600.653 158.304 600.64C157.61 600.6 157.044 600.527 156.604 600.42C156.164 600.3 155.764 600.04 155.404 599.64C154.964 599.093 154.744 598.493 154.744 597.84C154.744 597.68 154.75 597.56 154.764 597.48C154.87 596.64 155.224 596 155.824 595.56C156.424 595.107 157.23 594.88 158.244 594.88H158.264C159.01 594.88 159.617 595.02 160.084 595.3C160.55 595.58 160.91 595.92 161.164 596.32C161.43 596.76 161.597 597.22 161.664 597.7H160.264C160.237 597.513 160.15 597.293 160.004 597.04C159.67 596.533 159.09 596.267 158.264 596.24C157.424 596.24 156.87 596.38 156.604 596.66C156.337 596.94 156.177 597.267 156.124 597.64C156.11 597.693 156.104 597.767 156.104 597.86C156.104 598.18 156.217 598.467 156.444 598.72C156.63 598.947 156.87 599.1 157.164 599.18C157.457 599.247 157.877 599.3 158.424 599.34C158.864 599.367 159.237 599.407 159.544 599.46C159.864 599.513 160.164 599.613 160.444 599.76C161.31 600.227 161.744 601.02 161.744 602.14C161.744 602.527 161.664 602.9 161.504 603.26C161.357 603.607 161.144 603.913 160.864 604.18C160.237 604.793 159.377 605.1 158.284 605.1C157.217 605.1 156.35 604.8 155.684 604.2C155.164 603.693 154.844 603.067 154.724 602.32H156.124ZM177.041 596.36H175.381V605H174.001V596.36H172.341V595H174.001V591.7H175.381V595H177.041V596.36ZM183.43 596.48C183.123 596.347 182.816 596.28 182.51 596.28C181.883 596.28 181.343 596.507 180.89 596.96C180.436 597.413 180.21 597.953 180.21 598.58V605H178.85V598.58C178.85 597.86 179.036 597.207 179.41 596.62C179.796 596.02 180.296 595.573 180.91 595.28L180.95 595.26C181.443 595.033 181.963 594.92 182.51 594.92C183.363 594.92 184.123 595.18 184.79 595.7L183.43 596.48ZM194.687 595.26V605H193.307V603.16C192.387 604.453 191.16 605.1 189.627 605.1C188.707 605.1 187.86 604.88 187.087 604.44C186.314 603.987 185.7 603.373 185.247 602.6C184.807 601.827 184.587 600.987 184.587 600.08C184.587 599.16 184.807 598.313 185.247 597.54C185.7 596.767 186.314 596.16 187.087 595.72C187.86 595.267 188.707 595.04 189.627 595.04C190.574 595.04 191.347 595.24 191.947 595.64C192.56 596.027 193.014 596.447 193.307 596.9V595.26H194.687ZM189.627 603.74C190.294 603.74 190.907 603.58 191.467 603.26C192.027 602.927 192.467 602.48 192.787 601.92C193.12 601.36 193.287 600.747 193.287 600.08C193.287 599.413 193.12 598.8 192.787 598.24C192.467 597.667 192.027 597.22 191.467 596.9C190.907 596.567 190.294 596.4 189.627 596.4C188.96 596.4 188.34 596.567 187.767 596.9C187.207 597.22 186.76 597.667 186.427 598.24C186.107 598.8 185.947 599.413 185.947 600.08C185.947 600.747 186.107 601.36 186.427 601.92C186.76 602.48 187.207 602.927 187.767 603.26C188.34 603.58 188.96 603.74 189.627 603.74ZM200.642 595C201.362 595 202.022 595.18 202.622 595.54C203.235 595.887 203.722 596.367 204.082 596.98C204.442 597.58 204.622 598.24 204.622 598.96V605H203.242V598.96C203.242 598.493 203.122 598.067 202.882 597.68C202.655 597.28 202.342 596.967 201.942 596.74C201.542 596.5 201.108 596.38 200.642 596.38C200.175 596.38 199.742 596.5 199.342 596.74C198.942 596.967 198.622 597.28 198.382 597.68C198.155 598.067 198.042 598.493 198.042 598.96V605H196.682V595.26H198.042V596.14C198.375 595.767 198.762 595.487 199.202 595.3C199.655 595.1 200.135 595 200.642 595ZM207.628 602.32C207.734 602.693 207.901 602.987 208.128 603.2C208.501 603.547 209.048 603.72 209.768 603.72C210.394 603.72 210.901 603.573 211.288 603.28C211.674 602.987 211.868 602.607 211.868 602.14C211.868 601.7 211.781 601.373 211.608 601.16C211.434 600.947 211.208 600.813 210.928 600.76C210.661 600.693 210.288 600.653 209.808 600.64C209.114 600.6 208.548 600.527 208.108 600.42C207.668 600.3 207.268 600.04 206.908 599.64C206.468 599.093 206.248 598.493 206.248 597.84C206.248 597.68 206.254 597.56 206.268 597.48C206.374 596.64 206.728 596 207.328 595.56C207.928 595.107 208.734 594.88 209.748 594.88H209.768C210.514 594.88 211.121 595.02 211.588 595.3C212.054 595.58 212.414 595.92 212.668 596.32C212.934 596.76 213.101 597.22 213.168 597.7H211.768C211.741 597.513 211.654 597.293 211.508 597.04C211.174 596.533 210.594 596.267 209.768 596.24C208.928 596.24 208.374 596.38 208.108 596.66C207.841 596.94 207.681 597.267 207.628 597.64C207.614 597.693 207.608 597.767 207.608 597.86C207.608 598.18 207.721 598.467 207.948 598.72C208.134 598.947 208.374 599.1 208.668 599.18C208.961 599.247 209.381 599.3 209.928 599.34C210.368 599.367 210.741 599.407 211.048 599.46C211.368 599.513 211.668 599.613 211.948 599.76C212.814 600.227 213.248 601.02 213.248 602.14C213.248 602.527 213.168 602.9 213.008 603.26C212.861 603.607 212.648 603.913 212.368 604.18C211.741 604.793 210.881 605.1 209.788 605.1C208.721 605.1 207.854 604.8 207.188 604.2C206.668 603.693 206.348 603.067 206.228 602.32H207.628ZM224.55 595.26V605H223.17V603.16C222.25 604.453 221.024 605.1 219.49 605.1C218.57 605.1 217.724 604.88 216.95 604.44C216.177 603.987 215.564 603.373 215.11 602.6C214.67 601.827 214.45 600.987 214.45 600.08C214.45 599.16 214.67 598.313 215.11 597.54C215.564 596.767 216.177 596.16 216.95 595.72C217.724 595.267 218.57 595.04 219.49 595.04C220.437 595.04 221.21 595.24 221.81 595.64C222.424 596.027 222.877 596.447 223.17 596.9V595.26H224.55ZM219.49 603.74C220.157 603.74 220.77 603.58 221.33 603.26C221.89 602.927 222.33 602.48 222.65 601.92C222.984 601.36 223.15 600.747 223.15 600.08C223.15 599.413 222.984 598.8 222.65 598.24C222.33 597.667 221.89 597.22 221.33 596.9C220.77 596.567 220.157 596.4 219.49 596.4C218.824 596.4 218.204 596.567 217.63 596.9C217.07 597.22 216.624 597.667 216.29 598.24C215.97 598.8 215.81 599.413 215.81 600.08C215.81 600.747 215.97 601.36 216.29 601.92C216.624 602.48 217.07 602.927 217.63 603.26C218.204 603.58 218.824 603.74 219.49 603.74ZM234.834 603.32C234.354 603.88 233.781 604.32 233.114 604.64C232.461 604.947 231.754 605.1 230.994 605.1C230.088 605.1 229.248 604.873 228.474 604.42C227.701 603.967 227.088 603.353 226.634 602.58C226.181 601.807 225.954 600.967 225.954 600.06C225.954 599.153 226.181 598.313 226.634 597.54C227.088 596.767 227.701 596.153 228.474 595.7C229.248 595.247 230.088 595.02 230.994 595.02C231.754 595.02 232.461 595.18 233.114 595.5C233.781 595.807 234.354 596.24 234.834 596.8L233.614 597.5C233.281 597.153 232.888 596.887 232.434 596.7C231.981 596.5 231.501 596.4 230.994 596.4C230.328 596.4 229.714 596.567 229.154 596.9C228.594 597.22 228.148 597.66 227.814 598.22C227.481 598.78 227.314 599.393 227.314 600.06C227.314 600.727 227.481 601.34 227.814 601.9C228.148 602.46 228.594 602.907 229.154 603.24C229.714 603.56 230.328 603.72 230.994 603.72C231.501 603.72 231.981 603.627 232.434 603.44C232.888 603.24 233.281 602.967 233.614 602.62L234.834 603.32ZM240.752 596.36H239.092V605H237.712V596.36H236.052V595H237.712V591.7H239.092V595H240.752V596.36ZM243.461 592.22C243.701 592.22 243.907 592.307 244.081 592.48C244.254 592.653 244.341 592.86 244.341 593.1C244.341 593.353 244.254 593.567 244.081 593.74C243.907 593.913 243.701 594 243.461 594C243.207 594 242.994 593.913 242.821 593.74C242.647 593.567 242.561 593.353 242.561 593.1C242.561 592.86 242.647 592.653 242.821 592.48C242.994 592.307 243.207 592.22 243.461 592.22ZM244.141 595V605H242.761V595H244.141ZM250.604 605.1C249.697 605.1 248.851 604.873 248.064 604.42C247.291 603.967 246.677 603.353 246.224 602.58C245.771 601.793 245.544 600.947 245.544 600.04C245.544 599.12 245.771 598.273 246.224 597.5C246.677 596.713 247.291 596.093 248.064 595.64C248.851 595.173 249.697 594.94 250.604 594.94C251.524 594.94 252.371 595.173 253.144 595.64C253.931 596.093 254.551 596.713 255.004 597.5C255.471 598.273 255.704 599.12 255.704 600.04C255.704 600.947 255.471 601.793 255.004 602.58C254.551 603.353 253.931 603.967 253.144 604.42C252.371 604.873 251.524 605.1 250.604 605.1ZM250.604 603.76C251.284 603.76 251.904 603.593 252.464 603.26C253.037 602.927 253.491 602.473 253.824 601.9C254.157 601.327 254.324 600.707 254.324 600.04C254.324 599.36 254.157 598.733 253.824 598.16C253.491 597.587 253.037 597.133 252.464 596.8C251.904 596.467 251.284 596.3 250.604 596.3C249.937 596.3 249.317 596.467 248.744 596.8C248.184 597.133 247.737 597.587 247.404 598.16C247.071 598.733 246.904 599.36 246.904 600.04C246.904 600.707 247.071 601.327 247.404 601.9C247.737 602.473 248.184 602.927 248.744 603.26C249.317 603.593 249.937 603.76 250.604 603.76ZM261.462 595C262.182 595 262.842 595.18 263.442 595.54C264.055 595.887 264.542 596.367 264.902 596.98C265.262 597.58 265.442 598.24 265.442 598.96V605H264.062V598.96C264.062 598.493 263.942 598.067 263.702 597.68C263.475 597.28 263.162 596.967 262.762 596.74C262.362 596.5 261.929 596.38 261.462 596.38C260.995 596.38 260.562 596.5 260.162 596.74C259.762 596.967 259.442 597.28 259.202 597.68C258.975 598.067 258.862 598.493 258.862 598.96V605H257.502V595.26H258.862V596.14C259.195 595.767 259.582 595.487 260.022 595.3C260.475 595.1 260.955 595 261.462 595ZM268.448 602.32C268.555 602.693 268.721 602.987 268.948 603.2C269.321 603.547 269.868 603.72 270.588 603.72C271.215 603.72 271.721 603.573 272.108 603.28C272.495 602.987 272.688 602.607 272.688 602.14C272.688 601.7 272.601 601.373 272.428 601.16C272.255 600.947 272.028 600.813 271.748 600.76C271.481 600.693 271.108 600.653 270.628 600.64C269.935 600.6 269.368 600.527 268.928 600.42C268.488 600.3 268.088 600.04 267.728 599.64C267.288 599.093 267.068 598.493 267.068 597.84C267.068 597.68 267.075 597.56 267.088 597.48C267.195 596.64 267.548 596 268.148 595.56C268.748 595.107 269.555 594.88 270.568 594.88H270.588C271.335 594.88 271.941 595.02 272.408 595.3C272.875 595.58 273.235 595.92 273.488 596.32C273.755 596.76 273.921 597.22 273.988 597.7H272.588C272.561 597.513 272.475 597.293 272.328 597.04C271.995 596.533 271.415 596.267 270.588 596.24C269.748 596.24 269.195 596.38 268.928 596.66C268.661 596.94 268.501 597.267 268.448 597.64C268.435 597.693 268.428 597.767 268.428 597.86C268.428 598.18 268.541 598.467 268.768 598.72C268.955 598.947 269.195 599.1 269.488 599.18C269.781 599.247 270.201 599.3 270.748 599.34C271.188 599.367 271.561 599.407 271.868 599.46C272.188 599.513 272.488 599.613 272.768 599.76C273.635 600.227 274.068 601.02 274.068 602.14C274.068 602.527 273.988 602.9 273.828 603.26C273.681 603.607 273.468 603.913 273.188 604.18C272.561 604.793 271.701 605.1 270.608 605.1C269.541 605.1 268.675 604.8 268.008 604.2C267.488 603.693 267.168 603.067 267.048 602.32H268.448ZM294.765 595.26V605H293.385V603.16C292.465 604.453 291.239 605.1 289.705 605.1C288.785 605.1 287.939 604.88 287.165 604.44C286.392 603.987 285.779 603.373 285.325 602.6C284.885 601.827 284.665 600.987 284.665 600.08C284.665 599.16 284.885 598.313 285.325 597.54C285.779 596.767 286.392 596.16 287.165 595.72C287.939 595.267 288.785 595.04 289.705 595.04C290.652 595.04 291.425 595.24 292.025 595.64C292.639 596.027 293.092 596.447 293.385 596.9V595.26H294.765ZM289.705 603.74C290.372 603.74 290.985 603.58 291.545 603.26C292.105 602.927 292.545 602.48 292.865 601.92C293.199 601.36 293.365 600.747 293.365 600.08C293.365 599.413 293.199 598.8 292.865 598.24C292.545 597.667 292.105 597.22 291.545 596.9C290.985 596.567 290.372 596.4 289.705 596.4C289.039 596.4 288.419 596.567 287.845 596.9C287.285 597.22 286.839 597.667 286.505 598.24C286.185 598.8 286.025 599.413 286.025 600.08C286.025 600.747 286.185 601.36 286.505 601.92C286.839 602.48 287.285 602.927 287.845 603.26C288.419 603.58 289.039 603.74 289.705 603.74ZM301.26 596.36H299.6V605H298.22V596.36H296.56V595H298.22V591.7H299.6V595H301.26V596.36ZM320.552 595V604.92C320.552 605.707 320.359 606.433 319.972 607.1C319.586 607.767 319.059 608.293 318.392 608.68C317.726 609.067 316.999 609.26 316.212 609.26C315.452 609.26 314.752 609.08 314.112 608.72C313.472 608.36 312.952 607.873 312.552 607.26L313.752 606.58C314.019 606.98 314.366 607.3 314.792 607.54C315.232 607.78 315.706 607.9 316.212 607.9C316.746 607.9 317.239 607.767 317.692 607.5C318.159 607.233 318.526 606.867 318.792 606.4C319.059 605.947 319.192 605.453 319.192 604.92V603.86C318.792 604.233 318.339 604.527 317.832 604.74C317.326 604.94 316.786 605.04 316.212 605.04C315.439 605.04 314.719 604.853 314.052 604.48C313.399 604.093 312.872 603.58 312.472 602.94C312.086 602.3 311.886 601.593 311.872 600.82V595H313.232V600.7C313.232 601.233 313.366 601.733 313.632 602.2C313.899 602.653 314.259 603.013 314.712 603.28C315.179 603.547 315.679 603.68 316.212 603.68C316.746 603.68 317.239 603.547 317.692 603.28C318.159 603.013 318.526 602.653 318.792 602.2C319.059 601.733 319.192 601.233 319.192 600.7V595H320.552ZM327.225 605.1C326.319 605.1 325.472 604.873 324.685 604.42C323.912 603.967 323.299 603.353 322.845 602.58C322.392 601.793 322.165 600.947 322.165 600.04C322.165 599.12 322.392 598.273 322.845 597.5C323.299 596.713 323.912 596.093 324.685 595.64C325.472 595.173 326.319 594.94 327.225 594.94C328.145 594.94 328.992 595.173 329.765 595.64C330.552 596.093 331.172 596.713 331.625 597.5C332.092 598.273 332.325 599.12 332.325 600.04C332.325 600.947 332.092 601.793 331.625 602.58C331.172 603.353 330.552 603.967 329.765 604.42C328.992 604.873 328.145 605.1 327.225 605.1ZM327.225 603.76C327.905 603.76 328.525 603.593 329.085 603.26C329.659 602.927 330.112 602.473 330.445 601.9C330.779 601.327 330.945 600.707 330.945 600.04C330.945 599.36 330.779 598.733 330.445 598.16C330.112 597.587 329.659 597.133 329.085 596.8C328.525 596.467 327.905 596.3 327.225 596.3C326.559 596.3 325.939 596.467 325.365 596.8C324.805 597.133 324.359 597.587 324.025 598.16C323.692 598.733 323.525 599.36 323.525 600.04C323.525 600.707 323.692 601.327 324.025 601.9C324.359 602.473 324.805 602.927 325.365 603.26C325.939 603.593 326.559 603.76 327.225 603.76ZM337.903 605.08C337.183 605.08 336.516 604.907 335.903 604.56C335.303 604.2 334.823 603.72 334.463 603.12C334.103 602.507 333.923 601.84 333.923 601.12V595H335.303V601.12C335.303 601.587 335.416 602.02 335.643 602.42C335.883 602.82 336.203 603.14 336.603 603.38C337.003 603.607 337.436 603.72 337.903 603.72C338.37 603.72 338.803 603.607 339.203 603.38C339.603 603.14 339.916 602.82 340.143 602.42C340.383 602.02 340.503 601.587 340.503 601.12V595H341.863V604.9H340.503V603.94C340.17 604.313 339.776 604.6 339.323 604.8C338.883 604.987 338.41 605.08 337.903 605.08ZM348.449 596.48C348.142 596.347 347.836 596.28 347.529 596.28C346.902 596.28 346.362 596.507 345.909 596.96C345.456 597.413 345.229 597.953 345.229 598.58V605H343.869V598.58C343.869 597.86 344.056 597.207 344.429 596.62C344.816 596.02 345.316 595.573 345.929 595.28L345.969 595.26C346.462 595.033 346.982 594.92 347.529 594.92C348.382 594.92 349.142 595.18 349.809 595.7L348.449 596.48ZM67.3191 612.96C66.7325 612.96 66.2191 613.16 65.7791 613.56C65.3525 613.947 65.1058 614.427 65.0391 615H67.3191V616.36H65.0191V625H63.6591V616.36H62.6191V615H63.6591C63.6991 614.373 63.8858 613.8 64.2191 613.28C64.5658 612.76 65.0058 612.353 65.5391 612.06C66.0858 611.753 66.6791 611.6 67.3191 611.6V612.96ZM78.027 615.26V625H76.647V623.16C75.727 624.453 74.5003 625.1 72.967 625.1C72.047 625.1 71.2003 624.88 70.427 624.44C69.6536 623.987 69.0403 623.373 68.587 622.6C68.147 621.827 67.927 620.987 67.927 620.08C67.927 619.16 68.147 618.313 68.587 617.54C69.0403 616.767 69.6536 616.16 70.427 615.72C71.2003 615.267 72.047 615.04 72.967 615.04C73.9136 615.04 74.687 615.24 75.287 615.64C75.9003 616.027 76.3536 616.447 76.647 616.9V615.26H78.027ZM72.967 623.74C73.6336 623.74 74.247 623.58 74.807 623.26C75.367 622.927 75.807 622.48 76.127 621.92C76.4603 621.36 76.627 620.747 76.627 620.08C76.627 619.413 76.4603 618.8 76.127 618.24C75.807 617.667 75.367 617.22 74.807 616.9C74.247 616.567 73.6336 616.4 72.967 616.4C72.3003 616.4 71.6803 616.567 71.107 616.9C70.547 617.22 70.1003 617.667 69.767 618.24C69.447 618.8 69.287 619.413 69.287 620.08C69.287 620.747 69.447 621.36 69.767 621.92C70.1003 622.48 70.547 622.927 71.107 623.26C71.6803 623.58 72.3003 623.74 72.967 623.74ZM88.7709 615.04L84.8309 625H83.3709L79.4309 615.04H80.8909L84.1109 623.1L87.3109 615.04H88.7709ZM94.237 625.1C93.3303 625.1 92.4836 624.873 91.697 624.42C90.9236 623.967 90.3103 623.353 89.857 622.58C89.4036 621.793 89.177 620.947 89.177 620.04C89.177 619.12 89.4036 618.273 89.857 617.5C90.3103 616.713 90.9236 616.093 91.697 615.64C92.4836 615.173 93.3303 614.94 94.237 614.94C95.157 614.94 96.0036 615.173 96.777 615.64C97.5636 616.093 98.1836 616.713 98.637 617.5C99.1036 618.273 99.337 619.12 99.337 620.04C99.337 620.947 99.1036 621.793 98.637 622.58C98.1836 623.353 97.5636 623.967 96.777 624.42C96.0036 624.873 95.157 625.1 94.237 625.1ZM94.237 623.76C94.917 623.76 95.537 623.593 96.097 623.26C96.6703 622.927 97.1236 622.473 97.457 621.9C97.7903 621.327 97.957 620.707 97.957 620.04C97.957 619.36 97.7903 618.733 97.457 618.16C97.1236 617.587 96.6703 617.133 96.097 616.8C95.537 616.467 94.917 616.3 94.237 616.3C93.5703 616.3 92.9503 616.467 92.377 616.8C91.817 617.133 91.3703 617.587 91.037 618.16C90.7036 618.733 90.537 619.36 90.537 620.04C90.537 620.707 90.7036 621.327 91.037 621.9C91.3703 622.473 91.817 622.927 92.377 623.26C92.9503 623.593 93.5703 623.76 94.237 623.76ZM105.715 616.48C105.408 616.347 105.101 616.28 104.795 616.28C104.168 616.28 103.628 616.507 103.175 616.96C102.721 617.413 102.495 617.953 102.495 618.58V625H101.135V618.58C101.135 617.86 101.321 617.207 101.695 616.62C102.081 616.02 102.581 615.573 103.195 615.28L103.235 615.26C103.728 615.033 104.248 614.92 104.795 614.92C105.648 614.92 106.408 615.18 107.075 615.7L105.715 616.48ZM109.164 612.22C109.404 612.22 109.61 612.307 109.784 612.48C109.957 612.653 110.044 612.86 110.044 613.1C110.044 613.353 109.957 613.567 109.784 613.74C109.61 613.913 109.404 614 109.164 614C108.91 614 108.697 613.913 108.524 613.74C108.35 613.567 108.264 613.353 108.264 613.1C108.264 612.86 108.35 612.653 108.524 612.48C108.697 612.307 108.91 612.22 109.164 612.22ZM109.844 615V625H108.464V615H109.844ZM116.553 616.36H114.893V625H113.513V616.36H111.853V615H113.513V611.7H114.893V615H116.553V616.36ZM118.996 620.74C119.156 621.593 119.576 622.307 120.256 622.88C120.936 623.44 121.716 623.72 122.596 623.72C123.249 623.72 123.849 623.567 124.396 623.26C124.943 622.953 125.383 622.533 125.716 622L126.896 622.68C126.443 623.413 125.836 624 125.076 624.44C124.316 624.88 123.489 625.1 122.596 625.1C121.689 625.1 120.849 624.873 120.076 624.42C119.303 623.967 118.689 623.353 118.236 622.58C117.783 621.807 117.556 620.967 117.556 620.06C117.556 619.14 117.783 618.3 118.236 617.54C118.689 616.767 119.303 616.153 120.076 615.7C120.849 615.247 121.689 615.02 122.596 615.02C123.503 615.02 124.343 615.247 125.116 615.7C125.889 616.153 126.503 616.767 126.956 617.54C127.409 618.3 127.636 619.14 127.636 620.06C127.636 620.22 127.623 620.447 127.596 620.74H118.996ZM122.596 616.38C122.009 616.38 121.436 616.52 120.876 616.8C120.316 617.067 119.863 617.44 119.516 617.92C119.169 618.387 118.996 618.893 118.996 619.44H126.196C126.196 618.893 126.023 618.387 125.676 617.92C125.329 617.44 124.876 617.067 124.316 616.8C123.769 616.52 123.196 616.38 122.596 616.38ZM139.639 622.32C139.746 622.693 139.913 622.987 140.139 623.2C140.513 623.547 141.059 623.72 141.779 623.72C142.406 623.72 142.913 623.573 143.299 623.28C143.686 622.987 143.879 622.607 143.879 622.14C143.879 621.7 143.793 621.373 143.619 621.16C143.446 620.947 143.219 620.813 142.939 620.76C142.673 620.693 142.299 620.653 141.819 620.64C141.126 620.6 140.559 620.527 140.119 620.42C139.679 620.3 139.279 620.04 138.919 619.64C138.479 619.093 138.259 618.493 138.259 617.84C138.259 617.68 138.266 617.56 138.279 617.48C138.386 616.64 138.739 616 139.339 615.56C139.939 615.107 140.746 614.88 141.759 614.88H141.779C142.526 614.88 143.133 615.02 143.599 615.3C144.066 615.58 144.426 615.92 144.679 616.32C144.946 616.76 145.113 617.22 145.179 617.7H143.779C143.753 617.513 143.666 617.293 143.519 617.04C143.186 616.533 142.606 616.267 141.779 616.24C140.939 616.24 140.386 616.38 140.119 616.66C139.853 616.94 139.693 617.267 139.639 617.64C139.626 617.693 139.619 617.767 139.619 617.86C139.619 618.18 139.733 618.467 139.959 618.72C140.146 618.947 140.386 619.1 140.679 619.18C140.973 619.247 141.393 619.3 141.939 619.34C142.379 619.367 142.753 619.407 143.059 619.46C143.379 619.513 143.679 619.613 143.959 619.76C144.826 620.227 145.259 621.02 145.259 622.14C145.259 622.527 145.179 622.9 145.019 623.26C144.873 623.607 144.659 623.913 144.379 624.18C143.753 624.793 142.893 625.1 141.799 625.1C140.733 625.1 139.866 624.8 139.199 624.2C138.679 623.693 138.359 623.067 138.239 622.32H139.639ZM147.053 629.26V615.26H148.413V616.92C148.879 616.267 149.426 615.78 150.053 615.46C150.679 615.127 151.366 614.96 152.113 614.96C153.019 614.96 153.859 615.187 154.633 615.64C155.406 616.093 156.019 616.707 156.473 617.48C156.926 618.253 157.153 619.093 157.153 620C157.153 620.907 156.926 621.747 156.473 622.52C156.019 623.293 155.406 623.907 154.633 624.36C153.859 624.813 153.019 625.04 152.113 625.04C151.166 625.04 150.386 624.847 149.773 624.46C149.159 624.06 148.706 623.633 148.413 623.18V629.26H147.053ZM152.113 616.34C151.446 616.34 150.833 616.507 150.273 616.84C149.713 617.16 149.266 617.6 148.933 618.16C148.599 618.72 148.433 619.333 148.433 620C148.433 620.667 148.599 621.28 148.933 621.84C149.266 622.4 149.713 622.847 150.273 623.18C150.833 623.513 151.446 623.68 152.113 623.68C152.779 623.68 153.393 623.513 153.953 623.18C154.513 622.847 154.953 622.4 155.273 621.84C155.606 621.28 155.773 620.667 155.773 620C155.773 619.333 155.606 618.72 155.273 618.16C154.953 617.6 154.513 617.16 153.953 616.84C153.393 616.507 152.779 616.34 152.113 616.34ZM163.807 625.1C162.901 625.1 162.054 624.873 161.267 624.42C160.494 623.967 159.881 623.353 159.427 622.58C158.974 621.793 158.747 620.947 158.747 620.04C158.747 619.12 158.974 618.273 159.427 617.5C159.881 616.713 160.494 616.093 161.267 615.64C162.054 615.173 162.901 614.94 163.807 614.94C164.727 614.94 165.574 615.173 166.347 615.64C167.134 616.093 167.754 616.713 168.207 617.5C168.674 618.273 168.907 619.12 168.907 620.04C168.907 620.947 168.674 621.793 168.207 622.58C167.754 623.353 167.134 623.967 166.347 624.42C165.574 624.873 164.727 625.1 163.807 625.1ZM163.807 623.76C164.487 623.76 165.107 623.593 165.667 623.26C166.241 622.927 166.694 622.473 167.027 621.9C167.361 621.327 167.527 620.707 167.527 620.04C167.527 619.36 167.361 618.733 167.027 618.16C166.694 617.587 166.241 617.133 165.667 616.8C165.107 616.467 164.487 616.3 163.807 616.3C163.141 616.3 162.521 616.467 161.947 616.8C161.387 617.133 160.941 617.587 160.607 618.16C160.274 618.733 160.107 619.36 160.107 620.04C160.107 620.707 160.274 621.327 160.607 621.9C160.941 622.473 161.387 622.927 161.947 623.26C162.521 623.593 163.141 623.76 163.807 623.76ZM174.404 616.36H172.744V625H171.364V616.36H169.704V615H171.364V611.7H172.744V615H174.404V616.36ZM176.807 622.32C176.914 622.693 177.081 622.987 177.307 623.2C177.681 623.547 178.227 623.72 178.947 623.72C179.574 623.72 180.081 623.573 180.467 623.28C180.854 622.987 181.047 622.607 181.047 622.14C181.047 621.7 180.961 621.373 180.787 621.16C180.614 620.947 180.387 620.813 180.107 620.76C179.841 620.693 179.467 620.653 178.987 620.64C178.294 620.6 177.727 620.527 177.287 620.42C176.847 620.3 176.447 620.04 176.087 619.64C175.647 619.093 175.427 618.493 175.427 617.84C175.427 617.68 175.434 617.56 175.447 617.48C175.554 616.64 175.907 616 176.507 615.56C177.107 615.107 177.914 614.88 178.927 614.88H178.947C179.694 614.88 180.301 615.02 180.767 615.3C181.234 615.58 181.594 615.92 181.847 616.32C182.114 616.76 182.281 617.22 182.347 617.7H180.947C180.921 617.513 180.834 617.293 180.687 617.04C180.354 616.533 179.774 616.267 178.947 616.24C178.107 616.24 177.554 616.38 177.287 616.66C177.021 616.94 176.861 617.267 176.807 617.64C176.794 617.693 176.787 617.767 176.787 617.86C176.787 618.18 176.901 618.467 177.127 618.72C177.314 618.947 177.554 619.1 177.847 619.18C178.141 619.247 178.561 619.3 179.107 619.34C179.547 619.367 179.921 619.407 180.227 619.46C180.547 619.513 180.847 619.613 181.127 619.76C181.994 620.227 182.427 621.02 182.427 622.14C182.427 622.527 182.347 622.9 182.187 623.26C182.041 623.607 181.827 623.913 181.547 624.18C180.921 624.793 180.061 625.1 178.967 625.1C177.901 625.1 177.034 624.8 176.367 624.2C175.847 623.693 175.527 623.067 175.407 622.32H176.807ZM203.125 615.26V625H201.745V623.16C200.825 624.453 199.598 625.1 198.065 625.1C197.145 625.1 196.298 624.88 195.525 624.44C194.751 623.987 194.138 623.373 193.685 622.6C193.245 621.827 193.025 620.987 193.025 620.08C193.025 619.16 193.245 618.313 193.685 617.54C194.138 616.767 194.751 616.16 195.525 615.72C196.298 615.267 197.145 615.04 198.065 615.04C199.011 615.04 199.785 615.24 200.385 615.64C200.998 616.027 201.451 616.447 201.745 616.9V615.26H203.125ZM198.065 623.74C198.731 623.74 199.345 623.58 199.905 623.26C200.465 622.927 200.905 622.48 201.225 621.92C201.558 621.36 201.725 620.747 201.725 620.08C201.725 619.413 201.558 618.8 201.225 618.24C200.905 617.667 200.465 617.22 199.905 616.9C199.345 616.567 198.731 616.4 198.065 616.4C197.398 616.4 196.778 616.567 196.205 616.9C195.645 617.22 195.198 617.667 194.865 618.24C194.545 618.8 194.385 619.413 194.385 620.08C194.385 620.747 194.545 621.36 194.865 621.92C195.198 622.48 195.645 622.927 196.205 623.26C196.778 623.58 197.398 623.74 198.065 623.74ZM209.699 616.48C209.392 616.347 209.086 616.28 208.779 616.28C208.152 616.28 207.612 616.507 207.159 616.96C206.706 617.413 206.479 617.953 206.479 618.58V625H205.119V618.58C205.119 617.86 205.306 617.207 205.679 616.62C206.066 616.02 206.566 615.573 207.179 615.28L207.219 615.26C207.712 615.033 208.232 614.92 208.779 614.92C209.632 614.92 210.392 615.18 211.059 615.7L209.699 616.48ZM215.917 625.1C215.01 625.1 214.163 624.873 213.377 624.42C212.603 623.967 211.99 623.353 211.537 622.58C211.083 621.793 210.857 620.947 210.857 620.04C210.857 619.12 211.083 618.273 211.537 617.5C211.99 616.713 212.603 616.093 213.377 615.64C214.163 615.173 215.01 614.94 215.917 614.94C216.837 614.94 217.683 615.173 218.457 615.64C219.243 616.093 219.863 616.713 220.317 617.5C220.783 618.273 221.017 619.12 221.017 620.04C221.017 620.947 220.783 621.793 220.317 622.58C219.863 623.353 219.243 623.967 218.457 624.42C217.683 624.873 216.837 625.1 215.917 625.1ZM215.917 623.76C216.597 623.76 217.217 623.593 217.777 623.26C218.35 622.927 218.803 622.473 219.137 621.9C219.47 621.327 219.637 620.707 219.637 620.04C219.637 619.36 219.47 618.733 219.137 618.16C218.803 617.587 218.35 617.133 217.777 616.8C217.217 616.467 216.597 616.3 215.917 616.3C215.25 616.3 214.63 616.467 214.057 616.8C213.497 617.133 213.05 617.587 212.717 618.16C212.383 618.733 212.217 619.36 212.217 620.04C212.217 620.707 212.383 621.327 212.717 621.9C213.05 622.473 213.497 622.927 214.057 623.26C214.63 623.593 215.25 623.76 215.917 623.76ZM226.594 625.08C225.874 625.08 225.208 624.907 224.594 624.56C223.994 624.2 223.514 623.72 223.154 623.12C222.794 622.507 222.614 621.84 222.614 621.12V615H223.994V621.12C223.994 621.587 224.108 622.02 224.334 622.42C224.574 622.82 224.894 623.14 225.294 623.38C225.694 623.607 226.128 623.72 226.594 623.72C227.061 623.72 227.494 623.607 227.894 623.38C228.294 623.14 228.608 622.82 228.834 622.42C229.074 622.02 229.194 621.587 229.194 621.12V615H230.554V624.9H229.194V623.94C228.861 624.313 228.468 624.6 228.014 624.8C227.574 624.987 227.101 625.08 226.594 625.08ZM236.521 615C237.241 615 237.901 615.18 238.501 615.54C239.114 615.887 239.601 616.367 239.961 616.98C240.321 617.58 240.501 618.24 240.501 618.96V625H239.121V618.96C239.121 618.493 239.001 618.067 238.761 617.68C238.534 617.28 238.221 616.967 237.821 616.74C237.421 616.5 236.987 616.38 236.521 616.38C236.054 616.38 235.621 616.5 235.221 616.74C234.821 616.967 234.501 617.28 234.261 617.68C234.034 618.067 233.921 618.493 233.921 618.96V625H232.561V615.26H233.921V616.14C234.254 615.767 234.641 615.487 235.081 615.3C235.534 615.1 236.014 615 236.521 615ZM252.247 625H250.907V623.14C249.933 624.447 248.687 625.1 247.167 625.1C246.247 625.1 245.4 624.873 244.627 624.42C243.853 623.967 243.24 623.353 242.787 622.58C242.333 621.793 242.107 620.947 242.107 620.04C242.107 619.133 242.333 618.293 242.787 617.52C243.24 616.733 243.853 616.113 244.627 615.66C245.4 615.207 246.247 614.98 247.167 614.98C248.74 614.98 249.987 615.6 250.907 616.84V611.72H252.247V625ZM250.867 620.04C250.867 619.373 250.7 618.76 250.367 618.2C250.033 617.64 249.58 617.193 249.007 616.86C248.447 616.527 247.833 616.36 247.167 616.36C246.5 616.36 245.887 616.527 245.327 616.86C244.767 617.193 244.32 617.64 243.987 618.2C243.653 618.76 243.487 619.373 243.487 620.04C243.487 620.707 243.653 621.327 243.987 621.9C244.32 622.46 244.767 622.907 245.327 623.24C245.887 623.573 246.5 623.74 247.167 623.74C247.833 623.74 248.447 623.573 249.007 623.24C249.58 622.907 250.033 622.46 250.367 621.9C250.7 621.327 250.867 620.707 250.867 620.04ZM271.924 623.32C271.444 623.88 270.871 624.32 270.204 624.64C269.551 624.947 268.844 625.1 268.084 625.1C267.177 625.1 266.337 624.873 265.564 624.42C264.791 623.967 264.177 623.353 263.724 622.58C263.271 621.807 263.044 620.967 263.044 620.06C263.044 619.153 263.271 618.313 263.724 617.54C264.177 616.767 264.791 616.153 265.564 615.7C266.337 615.247 267.177 615.02 268.084 615.02C268.844 615.02 269.551 615.18 270.204 615.5C270.871 615.807 271.444 616.24 271.924 616.8L270.704 617.5C270.371 617.153 269.977 616.887 269.524 616.7C269.071 616.5 268.591 616.4 268.084 616.4C267.417 616.4 266.804 616.567 266.244 616.9C265.684 617.22 265.237 617.66 264.904 618.22C264.571 618.78 264.404 619.393 264.404 620.06C264.404 620.727 264.571 621.34 264.904 621.9C265.237 622.46 265.684 622.907 266.244 623.24C266.804 623.56 267.417 623.72 268.084 623.72C268.591 623.72 269.071 623.627 269.524 623.44C269.977 623.24 270.371 622.967 270.704 622.62L271.924 623.32ZM283.027 615.26V625H281.647V623.16C280.727 624.453 279.5 625.1 277.967 625.1C277.047 625.1 276.2 624.88 275.427 624.44C274.654 623.987 274.04 623.373 273.587 622.6C273.147 621.827 272.927 620.987 272.927 620.08C272.927 619.16 273.147 618.313 273.587 617.54C274.04 616.767 274.654 616.16 275.427 615.72C276.2 615.267 277.047 615.04 277.967 615.04C278.914 615.04 279.687 615.24 280.287 615.64C280.9 616.027 281.354 616.447 281.647 616.9V615.26H283.027ZM277.967 623.74C278.634 623.74 279.247 623.58 279.807 623.26C280.367 622.927 280.807 622.48 281.127 621.92C281.46 621.36 281.627 620.747 281.627 620.08C281.627 619.413 281.46 618.8 281.127 618.24C280.807 617.667 280.367 617.22 279.807 616.9C279.247 616.567 278.634 616.4 277.967 616.4C277.3 616.4 276.68 616.567 276.107 616.9C275.547 617.22 275.1 617.667 274.767 618.24C274.447 618.8 274.287 619.413 274.287 620.08C274.287 620.747 274.447 621.36 274.767 621.92C275.1 622.48 275.547 622.927 276.107 623.26C276.68 623.58 277.3 623.74 277.967 623.74ZM294.661 615C295.328 615 295.941 615.167 296.501 615.5C297.061 615.82 297.501 616.267 297.821 616.84C298.155 617.4 298.321 618.013 298.321 618.68V625H296.961V618.68C296.961 618.04 296.735 617.5 296.281 617.06C295.828 616.607 295.288 616.38 294.661 616.38C294.021 616.38 293.475 616.607 293.021 617.06C292.581 617.5 292.361 618.033 292.361 618.66V618.68V625H290.981V618.66C290.981 618.033 290.755 617.5 290.301 617.06C289.848 616.607 289.308 616.38 288.681 616.38C288.055 616.38 287.515 616.613 287.061 617.08C286.608 617.533 286.381 618.08 286.381 618.72V625H285.021V615.26H286.381V616.04C286.648 615.72 286.988 615.467 287.401 615.28C287.828 615.093 288.255 615 288.681 615C289.281 615 289.841 615.14 290.361 615.42C290.895 615.7 291.328 616.073 291.661 616.54C292.008 616.073 292.441 615.7 292.961 615.42C293.495 615.14 294.061 615 294.661 615ZM300.314 629.26V615.26H301.674V616.92C302.141 616.267 302.688 615.78 303.314 615.46C303.941 615.127 304.628 614.96 305.374 614.96C306.281 614.96 307.121 615.187 307.894 615.64C308.668 616.093 309.281 616.707 309.734 617.48C310.188 618.253 310.414 619.093 310.414 620C310.414 620.907 310.188 621.747 309.734 622.52C309.281 623.293 308.668 623.907 307.894 624.36C307.121 624.813 306.281 625.04 305.374 625.04C304.428 625.04 303.648 624.847 303.034 624.46C302.421 624.06 301.968 623.633 301.674 623.18V629.26H300.314ZM305.374 616.34C304.708 616.34 304.094 616.507 303.534 616.84C302.974 617.16 302.528 617.6 302.194 618.16C301.861 618.72 301.694 619.333 301.694 620C301.694 620.667 301.861 621.28 302.194 621.84C302.528 622.4 302.974 622.847 303.534 623.18C304.094 623.513 304.708 623.68 305.374 623.68C306.041 623.68 306.654 623.513 307.214 623.18C307.774 622.847 308.214 622.4 308.534 621.84C308.868 621.28 309.034 620.667 309.034 620C309.034 619.333 308.868 618.72 308.534 618.16C308.214 617.6 307.774 617.16 307.214 616.84C306.654 616.507 306.041 616.34 305.374 616.34ZM315.989 625.08C315.269 625.08 314.602 624.907 313.989 624.56C313.389 624.2 312.909 623.72 312.549 623.12C312.189 622.507 312.009 621.84 312.009 621.12V615H313.389V621.12C313.389 621.587 313.502 622.02 313.729 622.42C313.969 622.82 314.289 623.14 314.689 623.38C315.089 623.607 315.522 623.72 315.989 623.72C316.456 623.72 316.889 623.607 317.289 623.38C317.689 623.14 318.002 622.82 318.229 622.42C318.469 622.02 318.589 621.587 318.589 621.12V615H319.949V624.9H318.589V623.94C318.256 624.313 317.862 624.6 317.409 624.8C316.969 624.987 316.496 625.08 315.989 625.08ZM322.96 622.32C323.066 622.693 323.233 622.987 323.46 623.2C323.833 623.547 324.38 623.72 325.1 623.72C325.726 623.72 326.233 623.573 326.62 623.28C327.006 622.987 327.2 622.607 327.2 622.14C327.2 621.7 327.113 621.373 326.94 621.16C326.766 620.947 326.54 620.813 326.26 620.76C325.993 620.693 325.62 620.653 325.14 620.64C324.446 620.6 323.88 620.527 323.44 620.42C323 620.3 322.6 620.04 322.24 619.64C321.8 619.093 321.58 618.493 321.58 617.84C321.58 617.68 321.586 617.56 321.6 617.48C321.706 616.64 322.06 616 322.66 615.56C323.26 615.107 324.066 614.88 325.08 614.88H325.1C325.846 614.88 326.453 615.02 326.92 615.3C327.386 615.58 327.746 615.92 328 616.32C328.266 616.76 328.433 617.22 328.5 617.7H327.1C327.073 617.513 326.986 617.293 326.84 617.04C326.506 616.533 325.926 616.267 325.1 616.24C324.26 616.24 323.706 616.38 323.44 616.66C323.173 616.94 323.013 617.267 322.96 617.64C322.946 617.693 322.94 617.767 322.94 617.86C322.94 618.18 323.053 618.467 323.28 618.72C323.466 618.947 323.706 619.1 324 619.18C324.293 619.247 324.713 619.3 325.26 619.34C325.7 619.367 326.073 619.407 326.38 619.46C326.7 619.513 327 619.613 327.28 619.76C328.146 620.227 328.58 621.02 328.58 622.14C328.58 622.527 328.5 622.9 328.34 623.26C328.193 623.607 327.98 623.913 327.7 624.18C327.073 624.793 326.213 625.1 325.12 625.1C324.053 625.1 323.186 624.8 322.52 624.2C322 623.693 321.68 623.067 321.56 622.32H322.96ZM331.133 624.74C330.973 624.887 330.78 624.96 330.553 624.96C330.34 624.96 330.153 624.88 329.993 624.72C329.846 624.56 329.773 624.373 329.773 624.16C329.773 623.947 329.846 623.76 329.993 623.6C330.153 623.44 330.34 623.36 330.553 623.36C330.78 623.36 330.973 623.44 331.133 623.6C331.293 623.747 331.373 623.933 331.373 624.16C331.373 624.387 331.293 624.58 331.133 624.74Z" fill="white"/>
<defs>
<clipPath id="clip0_67_11229">
<rect width="393" height="852" fill="white"/>
</clipPath>
<clipPath id="clip1_67_11229">
<rect width="24" height="24" fill="white" transform="translate(313 415)"/>
</clipPath>
</defs>
</svg>
