<svg width="390" height="844" viewBox="0 0 390 844" fill="none" xmlns="http://www.w3.org/2000/svg">
<g clip-path="url(#clip0_91_3615)">
<rect width="390" height="844" rx="49" fill="white"/>
<ellipse cx="399" cy="407.514" rx="399" ry="407.514" transform="matrix(4.37114e-08 -1 -1 -4.37114e-08 602.027 940)" fill="url(#paint0_linear_91_3615)" fill-opacity="0.5"/>
<rect x="131" y="21" width="127" height="36" rx="18" fill="black"/>
<circle cx="236" cy="40" r="9" fill="#0A0A0A"/>
<g opacity="0.7">
<path d="M235.965 45.1166C238.723 45.1166 240.955 42.8384 240.955 40.0345C240.955 37.2306 238.723 34.9524 235.965 34.9524C233.206 34.9524 230.974 37.2306 230.974 40.0345C230.974 42.8384 233.206 45.1166 235.965 45.1166Z" fill="url(#paint1_radial_91_3615)"/>
<path d="M235.965 45.1166C238.723 45.1166 240.955 42.8384 240.955 40.0345C240.955 37.2306 238.723 34.9524 235.965 34.9524C233.206 34.9524 230.974 37.2306 230.974 40.0345C230.974 42.8384 233.206 45.1166 235.965 45.1166Z" fill="url(#paint2_angular_91_3615)"/>
<path d="M235.965 45.1166C238.723 45.1166 240.955 42.8384 240.955 40.0345C240.955 37.2306 238.723 34.9524 235.965 34.9524C233.206 34.9524 230.974 37.2306 230.974 40.0345C230.974 42.8384 233.206 45.1166 235.965 45.1166Z" fill="url(#paint3_angular_91_3615)"/>
<path d="M235.965 45.1166C238.723 45.1166 240.955 42.8384 240.955 40.0345C240.955 37.2306 238.723 34.9524 235.965 34.9524C233.206 34.9524 230.974 37.2306 230.974 40.0345C230.974 42.8384 233.206 45.1166 235.965 45.1166Z" stroke="#080F21" stroke-width="0.321951"/>
</g>
<line opacity="0.7" x1="235.965" y1="35.1134" x2="235.965" y2="44.9556" stroke="black" stroke-width="0.804878"/>
</g>
<defs>
<linearGradient id="paint0_linear_91_3615" x1="810" y1="225.5" x2="72.8672" y2="517.519" gradientUnits="userSpaceOnUse">
<stop offset="0.157206" stop-color="white"/>
<stop offset="0.281644" stop-color="#D2ECE6"/>
<stop offset="0.686786" stop-color="#005D3C"/>
</linearGradient>
<radialGradient id="paint1_radial_91_3615" cx="0" cy="0" r="1" gradientUnits="userSpaceOnUse" gradientTransform="translate(235.965 40.0345) rotate(90) scale(4.92112 4.82927)">
<stop offset="0.213542"/>
<stop offset="0.270833" stop-color="#081A32"/>
<stop offset="0.395833" stop-color="#1F3A58"/>
<stop offset="0.515625" stop-color="#375F90"/>
<stop offset="0.713542" stop-color="#274871"/>
<stop offset="0.916667" stop-color="#0D1528"/>
</radialGradient>
<radialGradient id="paint2_angular_91_3615" cx="0" cy="0" r="1" gradientUnits="userSpaceOnUse" gradientTransform="translate(235.965 40.0345) rotate(90) scale(4.92112 4.82927)">
<stop offset="0.411458" stop-opacity="0"/>
<stop offset="0.510417"/>
<stop offset="0.817708" stop-opacity="0"/>
</radialGradient>
<radialGradient id="paint3_angular_91_3615" cx="0" cy="0" r="1" gradientUnits="userSpaceOnUse" gradientTransform="translate(235.965 40.0345) rotate(90) scale(4.92112 4.82927)">
<stop/>
<stop offset="0.166667" stop-opacity="0"/>
<stop offset="0.885417" stop-opacity="0"/>
</radialGradient>
<clipPath id="clip0_91_3615">
<rect width="390" height="844" rx="49" fill="white"/>
</clipPath>
</defs>
</svg>
